<?xml version="1.0" encoding="UTF-8"?>
<svg id="Calque_5" data-name="Calque 5" xmlns="http://www.w3.org/2000/svg" viewBox="0 0 456.07 625.37">
  <defs>
    <style>
      .cls-1 {
        fill: #7d4e24;
      }

      .cls-1, .cls-2, .cls-3, .cls-4, .cls-5, .cls-6, .cls-7, .cls-8, .cls-9, .cls-10, .cls-11, .cls-12, .cls-13, .cls-14, .cls-15, .cls-16, .cls-17, .cls-18, .cls-19, .cls-20 {
        stroke: #1d1d1b;
        stroke-miterlimit: 10;
      }

      .cls-1, .cls-8, .cls-10, .cls-12 {
        stroke-width: 2px;
      }

      .cls-2, .cls-8 {
        fill: #3aaa35;
      }

      .cls-3 {
        fill: #535a6a;
      }

      .cls-4 {
        fill: #d7b393;
      }

      .cls-21, .cls-12, .cls-20 {
        fill: #5d4135;
      }

      .cls-5 {
        fill: #d5b294;
      }

      .cls-6 {
        fill: #565a70;
      }

      .cls-22 {
        fill: #b19685;
      }

      .cls-23 {
        letter-spacing: -.04em;
      }

      .cls-24 {
        font-family: PermanentMarker-Regular, 'Permanent Marker';
        font-size: 6px;
      }

      .cls-24, .cls-17, .cls-25 {
        fill: #1d1d1b;
      }

      .cls-26, .cls-9 {
        fill: #f5bdaa;
      }

      .cls-27, .cls-18 {
        fill: #947970;
      }

      .cls-7, .cls-10 {
        fill: none;
      }

      .cls-28 {
        fill: #d59281;
      }

      .cls-11 {
        fill: #997d71;
      }

      .cls-13 {
        fill: #d4b296;
      }

      .cls-14 {
        fill: #fff;
      }

      .cls-29 {
        letter-spacing: -.02em;
      }

      .cls-15 {
        fill: #dcb993;
        stroke-width: 4px;
      }

      .cls-16 {
        fill: #f9c9b2;
      }

      .cls-30 {
        letter-spacing: 0em;
      }

      .cls-19 {
        fill: #f9c3b0;
      }
    </style>
  </defs>
  <g>
    <path class="cls-18" d="m238.65,47.32c25.61,7.71,39.71,26.06,44.36,32.74-2.75,7.79-3.39,14.2-3.47,18.57-.32,16.05,6.5,21.58,4.18,36.85-.71,4.68-1.72,6.57-2.27,13.04-.14,1.62-.76,9.6.57,17.57.85,5.09,2.75,11.71,12.47,27.21,4.77,7.6,11.63,17.67,20.98,28.91l-179.15,3.4c7.02-8.81,14.56-20.76,18.9-35.34,2.55-8.58,4.64-15.98,1.32-23.06-1.65-3.53-3.75-5.07-5.29-10.02-1.74-5.6-1.15-10.4-.57-14.55,1.69-12.1,2.54-18.14,4.35-24.76,2.37-8.67,4.77-21.61,4.35-39.5,2.8-5.82,10.69-20.18,27.4-28.82,21.86-11.3,43.37-4.83,51.87-2.27Z"/>
    <path class="cls-26" d="m175.15,42.03c-.57,25.48-1.13,50.96-1.7,76.44,1.41,4.21,3.99,9.45,9.07,12.19,5.51,2.97,10.03.86,19.65-.47,20.03-2.78,40.9.72,43.84,1.23,8.16,1.42,11.39,2.82,14.83.66,6.23-3.9,6.34-15.13,5.29-24.59-1.48-22.07-2.96-44.14-4.44-66.21-28.85.25-57.7.5-86.55.76Z"/>
    <g>
      <path class="cls-18" d="m175.15,125.27c1.54-3.78,6.84-5.51,7.46-4.72.59.74-2.8,3.96-2.14,4.72.67.77,4.7-1.94,5.27-1.2.46.59-1.79,2.7-1.24,3.47.37.52,1.69-.36,2.65,0,1.14.43,1.95,2.65,1.31,9.48l62.09-1.68c1.35-3.1,2.71-6.2,4.06-9.31-.23-.71-.41-1.59,0-1.96.53-.47,1.55.37,2.08,0,1.13-.81-1.64-6.18-.94-6.59.48-.29,2.17,2.08,2.75,1.75.65-.37-1.08-3.53,0-4.54.72-.68,1.99.28,3.11,0,1.56-.39,2.87-3.23,3.07-11.67-.08,18.82-.16,37.64-.24,56.46-1.95,19.82-3.26,26.11-4.16,26.08-.66-.02-.93-3.4-1.78-3.4-1.45,0-2.55,9.89-3.13,9.83-.3-.03-.1-2.71-.57-2.79-.47-.08-1.27,2.48-1.39,2.84-1.81,5.67-7.73,11.51-11.37,13.96-3.55,2.39-8.25,2.71-17.5,3.26-13.42.8-24.95,1.48-28.81-4.14-.33-.47-2.45-3.69-4.9-7.65-.71-1.14-2.34-3.8-2.55-3.69-.24.13,1.8,3.51,1.13,4.06-.65.54-3.86-1.62-5.86-4.16-3.7-4.7-3.25-10.69-3.09-14.06.47-10.06.12-35.76-4.75-47.61-.42-1.02-1.7-3.95-.57-6.73Z"/>
      <g>
        <polyline class="cls-27" points="188.47 157.87 188.47 170.49 189.89 175.45"/>
        <path class="cls-25" d="m188.47,157.87c.53,4.19.57,8.4.43,12.61.29,1.05.77,3.43.99,4.96-.69-1.62-1.35-3.28-1.84-4.96-.14-4.21-.1-8.42.43-12.61h0Z"/>
      </g>
      <path class="cls-25" d="m189.18,152.06c.47,4.93.9,10.59,1.13,15.2.77,2.93,1.79,6.49,2.43,9.12,2.98,6.59,5.95,13.18,8.63,19.9-3.37-6.42-6.46-12.97-9.53-19.53-.83-3.08-1.58-6.18-2.37-9.27-.22-5.13-.29-10.28-.29-15.42h0Z"/>
      <path class="cls-25" d="m206.19,161.56c.38,5.2.49,10.67.5,15.87,1.47,4,3.32,9.87,4.6,14.6-2.07-4.76-3.87-9.62-5.6-14.51.01-5.24.11-10.73.5-15.96h0Z"/>
      <path class="cls-25" d="m220.79,159.01c.68,13.05.68,26.21,0,39.26-.68-13.05-.68-26.21,0-39.26h0Z"/>
      <path class="cls-25" d="m234.25,160.85c.68,2.45.69,4.92,0,7.37-.69-2.45-.68-4.92,0-7.37h0Z"/>
      <path class="cls-25" d="m234.25,157.16c1.05,3.08,2.45,7.82,3.4,10.99.08,4.44.09,8.88.06,13.32-.79,2.49-1.6,4.98-2.44,7.46-.81,2.46-1.68,4.91-2.58,7.35.61-2.52,1.26-5.04,1.96-7.53.63-2.27,1.52-5.61,2.1-7.35-.02-4.21-.05-9.28.07-13.07-.78-3.2-1.93-7.97-2.57-11.16h0Z"/>
      <path class="cls-25" d="m249.56,155.75c.71,5.06,1.16,10.4,1.5,15.49-1.25,4.94-2.58,9.85-4.19,14.69.82-4.75,2.1-10.62,3.19-14.71-.31-5.07-.55-10.4-.49-15.48h0Z"/>
      <path class="cls-25" d="m252.53,155.04c.68,4.15.69,8.32,0,12.47-.69-4.15-.68-8.32,0-12.47h0Z"/>
    </g>
    <path class="cls-18" d="m258.5,61.79c1.48,5.15,3.43,13.16,4.31,23.16.55,6.17.29,8.58,0,28.77-.36,25.36.04,21.52-.26,25.91-1.07,15.5-3.08,19.3-.17,26.39,1.73,4.21,3.91,6.45,5.46,12.83.25,1.01,1.33,5.65,1.28,11.91-.01,1.5-.11,4.97-.92,9.35-.67,3.61-1.98,8.66-4.75,14.31,3.5-3.44,8.31-9.22,10.84-17.5,1.59-5.22,1.66-9.4,1.77-17.08.09-6.13-.39-11.33-1.35-21.47-1.24-13.06-1.66-13.2-1.98-20.06-.36-7.54.05-9.42-.14-18.35-.17-7.95-.67-14.39-1.06-18.57-.79-10.56-1.57-21.12-2.36-31.68l-10.66-7.92Z"/>
    <g>
      <line class="cls-27" x1="267.65" y1="107.79" x2="269.26" y2="155.98"/>
      <path class="cls-25" d="m267.65,107.79c.34,4.01.57,8.02.78,12.03.22,4.01.34,8.03.52,12.04.09,4.02.23,8.03.29,12.05l.06,6.03c-.02,2.01,0,4.02-.04,6.03-.18-2-.3-4.01-.45-6.02l-.34-6.02c-.21-4.01-.34-8.03-.52-12.04-.09-4.02-.23-8.03-.29-12.05-.05-4.02-.09-8.04-.02-12.06Z"/>
    </g>
    <g>
      <line class="cls-27" x1="276.91" y1="125.27" x2="277.57" y2="147.19"/>
      <path class="cls-25" d="m276.91,125.27c.5,3.64.7,7.29.83,10.95.1,3.65.12,7.31-.17,10.98-.51-3.64-.71-7.29-.83-10.95-.09-3.65-.11-7.31.17-10.98Z"/>
    </g>
    <g>
      <path class="cls-27" d="m280.6,130.56c.24,6.52.49,13.03.73,19.55"/>
      <path class="cls-25" d="m280.6,130.56c.52,3.24.73,6.5.87,9.75.11,3.26.14,6.52-.13,9.79-.52-3.24-.73-6.5-.87-9.75-.11-3.26-.14-6.52.13-9.79Z"/>
    </g>
    <g>
      <polyline class="cls-27" points="283.34 159.48 278.99 180.17 276.06 190.38"/>
      <path class="cls-25" d="m283.34,159.48c-.24,1.75-.49,3.5-.8,5.23-.31,1.74-.59,3.48-.93,5.21-.66,3.46-1.38,6.91-2.17,10.35v.02s0,0,0,0c-.51,1.7-1.07,3.37-1.62,5.06-.54,1.69-1.14,3.36-1.75,5.02.37-1.74.75-3.47,1.18-5.18.43-1.72.84-3.44,1.31-5.15v.03c.65-3.46,1.38-6.91,2.17-10.35.38-1.72.83-3.43,1.24-5.14.42-1.71.89-3.42,1.37-5.11Z"/>
    </g>
    <g>
      <polyline class="cls-27" points="279.7 187.45 284.19 196.71 288.63 200.11"/>
      <path class="cls-25" d="m279.7,187.45c.97,1.43,1.84,2.92,2.64,4.44.81,1.51,1.56,3.06,2.26,4.62l-.13-.16c1.45,1.18,2.85,2.42,4.16,3.77-1.65-.92-3.21-1.94-4.72-3.04l-.08-.06-.06-.11c-.79-1.52-1.54-3.06-2.23-4.64-.69-1.57-1.32-3.17-1.85-4.82Z"/>
    </g>
    <g>
      <polyline class="cls-27" points="284.16 187.92 286.93 195.38 291.27 199.45"/>
      <path class="cls-25" d="m284.16,187.92c.68,1.16,1.24,2.37,1.78,3.59.51,1.22,1.01,2.45,1.44,3.71l-.12-.19c1.42,1.38,2.8,2.81,4.01,4.42-1.68-1.1-3.2-2.38-4.68-3.71l-.08-.07-.05-.12c-.49-1.23-.91-2.49-1.32-3.75-.38-1.27-.75-2.55-.99-3.88Z"/>
    </g>
    <path class="cls-25" d="m171.04,73.4c.39,2.83.48,5.67.5,8.5-.01,2.83-.1,5.67-.5,8.5-.4-2.83-.49-5.67-.5-8.5.02-2.83.11-5.67.5-8.5Z"/>
    <g>
      <polyline class="cls-27" points="171.04 98.48 168.06 117.19 164.8 138.11 166.08 160.85 172.46 177.57 184.5 189.19 180.39 174.93 178.55 129.67 176.57 88.85 182.52 58.94"/>
      <path class="cls-25" d="m171.04,98.48s-5.97,39.87-5.94,39.61c.03-.08,1.41,23.2,1.36,22.61-.16-.19,6.8,17.42,6.3,16.55,0,0,12.07,11.6,12.07,11.6,0,0-.78.47-.78.47-.02-.06-4.13-14.27-4.15-14.32-.79-21.52-2.61-64.7-3.58-86.21,0,0,6.2-29.86,6.2-29.86,0-.01-5.73,30.16-5.7,29.89,0,0,1.15,21.51,1.15,21.51.88,14.41,2.28,49.65,2.92,64.56-.12-.54,4.08,14.25,4.07,14.16,0,0,.49,1.7.49,1.7l-1.27-1.23c-.07-.08-12.04-11.64-12.1-11.71-.03-.02-6.35-16.78-6.38-16.83-.01-.03-.03-.09-.03-.12,0-.06-1.18-22.75-1.16-22.81,1.59-9.86,4.86-29.74,6.53-39.58h0Z"/>
    </g>
    <g>
      <polyline class="cls-27" points="162.96 79.64 164.09 94.23 162.25 112.94 161.12 127.12 160.13 132.79"/>
      <path class="cls-25" d="m162.96,79.64c.6,4.85,1.07,9.71,1.54,14.57v.03s0,.04,0,.04l-.74,8.22c-.24,2.74-.51,5.48-.81,8.21-.32,2.73-.49,5.48-.77,8.22l-.84,8.21v.02s0,0,0,0c-.4,1.88-.78,3.76-1.2,5.63.24-1.91.52-3.8.78-5.71v.02s.47-8.24.47-8.24c.18-2.75.36-5.49.63-8.23.24-2.74.5-5.48.81-8.22l.87-8.21v.07c-.29-4.87-.57-9.75-.73-14.63Z"/>
    </g>
    <g>
      <path class="cls-27" d="m152.9,165.38c3.3,4.75,6.6,9.49,9.89,14.24"/>
      <path class="cls-25" d="m152.9,165.38c1.97,2.15,3.7,4.47,5.36,6.83,1.64,2.38,3.21,4.8,4.54,7.4-1.97-2.15-3.7-4.47-5.36-6.83-1.64-2.38-3.21-4.81-4.54-7.4Z"/>
    </g>
    <path class="cls-25" d="m160.13,138.11c-.16,3.25-.52,9.74-.71,12.98-.03-.34,1.85,11.92,1.84,11.82,0,.06.04,6.52.03,6.58-.05-.37,1.71,10.1,1.7,10.02-.27-.67,8.47,17.44,8.41,17.3,4.5,5.34,9.71,11.65,14.34,17.4-5.08-5.63-10.11-11.31-15.07-17.04,0,0-8.62-17.36-8.62-17.36-.02-.04-.04-.1-.04-.14,0-.05-1.62-10.1-1.63-10.14-.01,0,.03-6.74.03-6.49,0-.03-1.58-11.96-1.56-11.99.3-3.22.93-9.73,1.27-12.94h0Z"/>
    <g>
      <polyline class="cls-27" points="161.61 187.45 162.11 198.27 153.75 213.86"/>
      <path class="cls-25" d="m161.61,187.45c.23,1.8.42,3.59.56,5.39.16,1.8.3,3.6.41,5.4v.13s-.06.12-.06.12c-1.37,2.61-2.75,5.21-4.21,7.78-.72,1.29-1.49,2.55-2.23,3.82-.75,1.27-1.53,2.52-2.34,3.77.59-1.36,1.2-2.7,1.84-4.03.65-1.32,1.28-2.66,1.95-3.97,1.33-2.63,2.73-5.23,4.15-7.81l-.06.25c-.06-1.8-.09-3.61-.09-5.42-.02-1.81,0-3.61.07-5.42Z"/>
    </g>
    <g>
      <path class="cls-27" d="m185.74,208.75l-6.34-12.05-3.97-12.19c-.08-1.43-.16-2.87-.24-4.3"/>
      <path class="cls-25" d="m185.74,208.75c-1.21-1.92-2.36-3.88-3.48-5.86-1.14-1.97-2.23-3.96-3.29-5.96l-.02-.03v-.04c-.69-2.03-1.34-4.06-1.97-6.1-.64-2.04-1.2-4.1-1.8-6.15v-.04s-.01-.03-.01-.03c-.01-.72,0-1.44,0-2.16,0-.72,0-1.44.03-2.16.1.71.19,1.43.26,2.14.08.71.17,1.43.24,2.14v-.07c.72,2.01,1.47,4.01,2.16,6.03.69,2.02,1.37,4.05,2.01,6.08l-.03-.08c1.05,2.01,2.07,4.04,3.05,6.09,1,2.04,1.96,4.1,2.86,6.19Z"/>
    </g>
    <g>
      <polyline class="cls-27" points="173.73 117.48 173.16 125.27 170.4 137.18 170.4 151.21 176 172.5"/>
      <path class="cls-25" d="m173.73,117.48c-.07,2.61-.19,5.21-.31,7.81h0s0,.04,0,.04c-.85,3.98-1.66,7.98-2.58,11.95v-.1s.06,7.02.06,7.02c.01,2.34-.02,4.68-.03,7.02l-.02-.12c.92,3.55,1.82,7.11,2.67,10.68.87,3.56,1.7,7.14,2.48,10.73-1.08-3.51-2.12-7.03-3.11-10.56-1.02-3.53-1.98-7.07-2.93-10.61v-.06s-.02-.06-.02-.06c0-2.34-.04-4.68-.03-7.02l.05-7.02v-.05s.01-.05.01-.05c.92-3.97,1.95-7.91,2.94-11.86v.04c.26-2.59.51-5.19.82-7.78Z"/>
    </g>
    <polygon class="cls-27" points="171.04 70.72 174.23 95.45 181.65 63.19 171.04 70.72"/>
    <path class="cls-1" d="m205.86,4.33c6.4-1.9,12.49-3.71,20.83-3.26,3.29.18,20.58,1.44,33.59,15.17,7.76,8.19,10.72,17.36,11.62,20.27,1.79,5.78,2.8,12.71,3.21,15.54,1.53,10.53.44,11.81,2.53,15.78,3.23,6.13,7.55,6.35,8.62,12,.61,3.22-.26,5.97-1.23,9.07-1.42,4.51-4.3,9.92-5.69,9.54-1.46-.4.97-6.54-.92-13.32-1.42-5.1-7.16-9.61-18.57-18.43-17.29-13.36-18.93-14.58-22.96-15.73-7.49-2.14-13.58-1.27-20.55-.28-5.6.8-19.82,2.98-32.74,13.04-10.42,8.11-10.02,13.58-19.28,19.42-1.37.86-4.49,2.71-5.67,6.24-1.54,4.6,1.39,8.63.57,9.07-1.07.58-7.71-5.32-7.65-12.61.04-5.33,3.85-9.9,4.15-9.77.1.04-.12.67-.04.7.28.1,3.79-7.36,6.09-14.88,2.67-8.73,1.54-11.81,3.54-19.7.69-2.73,2.98-11.41,9.07-19.28,9.27-11.98,22.56-15.92,31.46-18.57Z"/>
    <path class="cls-8" d="m164.78,45.11c3.83-3.54,9.42-8.18,16.78-12.68,5.9-3.61,14.94-9.03,28.06-11.91,9.84-2.15,17.92-1.98,22.25-1.7,5.79.38,13.89.98,23.24,5.24,7.41,3.38,12.66,7.7,15.88,10.78,1.13,3.58,2.22,7.62,3.1,12.08.94,4.8,1.49,9.23,1.78,13.2-2.52-3.83-6.81-9.39-13.53-14.52-2.85-2.17-8.99-6.77-18.14-9.35-9.11-2.57-16.44-1.81-23.67-.99-13.6,1.55-23.43,5.8-30.19,8.79-7.37,3.26-17.44,8.55-28.16,17.1.5-2.26.97-4.63,1.39-7.12.52-3.11.92-6.1,1.21-8.92Z"/>
  </g>
  <g id="Calque_7" data-name="Calque 7">
    <path class="cls-20" d="m116.61,586.75c1.37,3.79,8.18,4.33,16.16,4.96,4.58.36,6.86.54,7.51-.57,1.94-3.32-8.39-17.48-16.87-15.02-4.47,1.29-8.08,7.11-6.8,10.63Z"/>
    <path class="cls-12" d="m21.23,580.52c-4.33,1.91-14.34,6.33-14.74,13.23-.32,5.51,5.63,10.08,7.7,11.66,2.22,1.7,7.24,4.98,20.51,6.01,13.34,1.04,23.56-1.09,25.09-1.42,15.91-3.43,47.15-14.28,46.2-23.95-1.22-12.45-55.34-18.5-84.76-5.53Z"/>
    <path class="cls-22" d="m90.68,385.78c-5.55-.74-14.29,2.64-21.62,5.49-.58.23-2.48,1.05-6.28,2.71-5.17,2.25-6.13,2.73-7.25,3.87-1.82,1.86-1.57,2.95-3.12,3.81-2.21,1.23-4.21-.22-6.65-.36-7.14-.42-13.06,10.4-13.49,11.22-.79,1.49-4.56,8.49-2.37,16.36.74,2.65,2.32,8.34,6.65,10.9,1.12.66,3.54,1.77,3.95,3.9.24,1.21-.36,1.8.14,2.8.58,1.15,1.99,1.57,3.96,2.13,1.73.49,2.81.57,3.38.68,2.45.48,3.65,3.15,7.23,10.75,3.56,7.56,4.35,9.1,6.01,13.05,1.12,2.66,1.9,4.68,2.23,5.54.43,1.12,1.62,4.25,3.23,9.1,1.49,4.49,2.42,7.98,3.42,11.51,1.33,4.67,1.81,6.59.81,8.35-1.45,2.55-4.01,1.23-6.91,3.76-4.23,3.71-1.67,9.09-6.36,13-1.79,1.49-2.55,1.04-3.75,2.59-2.39,3.09-2.22,8.61.37,10.68,1.72,1.37,3.73.62,7.48.25,4.33-.43,8.55.33,17.01,1.84,7.47,1.34,11.21,2.01,15.73,4.25,3.48,1.73,3.87,2.58,8.5,4.96,4.43,2.27,7.73,3.97,11.48,4.68,11.22,2.11,21.27-5.58,25.09-8.5,4.67-3.58,6.53-6.56,7.09-7.51,1.41-2.39,4.33-7.34,2.83-12.9-1.13-4.22-4.59-7.93-8.36-9.64-3.27-1.47-6.09-1.14-6.85-3.13-.63-1.67.84-3.21-.16-5.52-.44-1.02-1.12-1.61-1.63-2.06-3.28-2.87-8.26-2.32-9.21-2.19-1.5.2-1.78.48-2.49.23-2.15-.78-2.51-4.53-2.89-6.85-.77-4.66-3.72-8.72-5.02-13.26-1.79-6.22-3.86-8.82-15.95-34.51-2.95-6.28-4.52-9.72-2.94-11.9,2.66-3.65,10.52,1.28,14.75-1.92,8.84-6.69-2.02-46.02-18.05-48.15Z"/>
    <path class="cls-21" d="m132.94,548.73c2.54-2.04,5.09-4.08,7.63-6.11,1.75,1.38,4.58,4,6.62,8.15,1.27,2.59,1.85,4.98,2.13,6.77,0,0,.04.6.03,1.16-.11,7.82-12.8,16.18-12.8,16.18-4.07,2.68-4.95,2.55-14.04,6.92-6.81,3.27-6.16,3.27-17.95,9.27-14.69,7.48-17.84,8.52-21.99,8.94-5.13.51-9.3-.2-12.13-.67-7.06-1.2-11.17-3.32-17.01-5.76-14.22-5.94-21.32-8.86-27.83-8.51-11.01.6-17.29,7.51-22.09,3.8-1.36-1.05-2.79-3.11-2.43-4.94.49-2.53,3.96-2.39,6.88-5.71,2.38-2.71,1.7-4.66,3.56-9.13,1.05-2.53,2.95-5.95,6.66-9.54,9.03-6.55,14.35-8.04,17.61-8.03.78,0,2.66.1,4.41-1.04,2.34-1.53,2.03-3.7,4.01-6.47,2.1-2.93,5.06-4.14,7.28-5.05,3.69-1.51,6.92-1.56,9.82-1.5,9.18.19,15.95.33,25.32,3.19,7.05,2.15,12.96,5.05,15.68,6.39,7.63,3.77,9.15,5.56,13.3,6.27,3.74.64,9.47.38,17.32-4.58Z"/>
    <g id="Calque_6" data-name="Calque 6">
      <path class="cls-11" d="m222.77,136.75c.02,1.09.32,12.1,6.94,15.73,1.5.83,2.59,1.07,6.62,2.9,1.29.59,2.38,1.2,3.87,2.06,3.82,2.22,4.86,3.37,5.43,2.98.78-.54-.1-3.36-1.13-5.24-.45-.82-.94-1.49-2.98-3.73-1.4-1.55-2.62-2.83-3.54-3.78,2.27,2.88,4.44,4.84,6,6.09,2.86,2.3,4.08,2.57,8.27,5.81,4.6,3.56,5.27,4.89,5.57,5.95.74,2.54-.17,4.84.66,5.2.71.3,1.95-1.1,2.62-1.9,2.28-2.73,4.69-5.6,6.03-10.52.41-1.5,2.28-8.41-.57-15.45-5.23-12.91-21.79-14.91-28.63-15.73-4.3-.52-10.79-1.22-13.75,2.55-1.5,1.91-1.46,4.17-1.42,7.09Z"/>
      <path class="cls-11" d="m215.68,129.53c2.17,2.98,2.77,5.74,2.98,7.23.86,6.26-2.22,13.23-6.94,15.73-1.41.75-2.71.96-6.62,2.9-1.29.64-2.44,1.21-3.87,2.06-4.62,2.75-5.9,4.71-6.66,4.25-.92-.55-.35-4.21,1.56-6.77.92-1.23,1.42-1.24,3.78-3.48,2.13-2.02,3.57-3.76,3.54-3.78-.03-.03-2.38,2.79-6,6.09-5.13,4.68-6.24,4.34-8.69,7.51-1.29,1.67-3.51,4.56-3.97,8.65-.4,3.6.84,5.8,0,6.24-1.11.57-4.27-2.8-6.09-5.95-.71-1.23-1.1-2.21-1.25-2.57-2.73-6.81-4.49-9.56-5.13-11.55-2.17-6.79,4.81-16.98,11.62-22.2,13.15-10.1,29.86-4.96,31.75-4.35Z"/>
      <path class="cls-11" d="m215.68,129.53c-4.35-1.67-12.64-4.05-22.39-1.98-3.93.83-9.64,2.04-14.46,6.94-4.83,4.91-5.94,10.67-6.8,15.17-.83,4.33-1.74,9.06.85,13.61,1.44,2.53,3.44,4.08,4.82,4.96-1.3-2.94-3.26-8.63-1.98-15.31,1.07-5.57,3.97-9.67,5.95-12.47,1.68-2.37,3.32-4.16,4.54-5.39"/>
      <path class="cls-11" d="m225.49,128.43c3.29-1.42,11.8-4.55,22.04-2.12,3,.71,9.53,2.35,15.07,8.17,1.44,1.52,5.86,6.3,7.04,13.84.43,2.76,1.38,8.88-2.36,14.08-1.5,2.08-3.28,3.35-4.48,4.07,1.06-1.68,5.25-8.72,3.35-17.49-1.23-5.66-4.38-9.22-5.2-10.11-4.69-5.08-10.46-6.29-12.38-6.61"/>
      <path class="cls-25" d="m229.39,134.91c4.32,4.71,9.82,8.25,16.09,9.74,6.38,1.68,11.44,6.66,14.43,12.37-.94-1.31-1.9-2.59-2.98-3.77-3.11-3.58-7.14-6.42-11.73-7.64-1.53-.44-3.12-.9-4.61-1.57-4.46-1.96-8.36-5.21-11.19-9.13h0Z"/>
      <path class="cls-25" d="m209.45,135.62c-1.58,4.45-4.59,8.52-8.71,10.94-2.95,1.69-6.16,3.55-9.06,5.33-1.02.57-2.02,1.18-3.07,1.73.91-.74,1.86-1.42,2.79-2.14,2.73-2.04,5.88-4.12,8.82-5.78,4.03-2.34,6.97-6.04,9.22-10.08h0Z"/>
    </g>
    <g id="Calque_8" data-name="Calque 8">
      <path class="cls-25" d="m212.99,61.92c2.43-3.08,7.84-3.15,10.28,0-3.36-1.81-6.91-1.78-10.28,0h0Z"/>
      <path class="cls-25" d="m200.24,63.48c1.42,0,2.83.03,4.24-.04,1.4-.04,2.81-.13,4.17-.39,1.28-.27,2.84-.81,4.38-.31.38.12.75.29,1.08.52.17.12.33.26.45.37.12.11.19.16.29.19.46.17.92-.04,1.48-.47.54-.4,1.21-.94,2.09-1.05.43-.04.88,0,1.29.18.41.18.72.45.98.68.52.48.98.73,1.59.73.3,0,.54-.05.83-.19.3-.14.68-.33,1.06-.41.76-.17,1.56-.15,2.28.08.71.22,1.35.49,2.01.71,1.32.48,2.69.81,4.08,1.1-1.42-.06-2.83-.3-4.22-.63-.69-.17-1.38-.41-2.03-.57-.64-.16-1.3-.13-1.92.05-.3.09-.56.24-.89.42-.33.19-.79.32-1.2.32-.41,0-.83-.06-1.22-.23-.39-.17-.72-.42-.99-.65-.54-.47-.97-.69-1.55-.61-.55.07-1.04.44-1.62.88-.29.21-.62.45-1.05.6-.43.16-.93.14-1.37-.02-.23-.08-.46-.25-.59-.38-.14-.13-.24-.22-.36-.31-.24-.17-.52-.31-.81-.41-.58-.2-1.24-.24-1.9-.17-.65.06-1.35.26-2.08.34-2.88.34-5.72.09-8.52-.32Z"/>
      <path class="cls-25" d="m202.93,65.18c-5.38.55-10.76.58-16.16.4,0,0,.26-.1.26-.1-1.47,1.18-2.96,2.32-4.51,3.38,1.31-1.41,2.68-2.76,4.09-4.08,5.45-.19,10.89-.17,16.32.39h0Z"/>
      <path class="cls-25" d="m181.67,74.53c-.03,1.08.13,2.29.93,3.01.81.72,1.99.54,3.02.3,2.12-.5,4.25-1.22,6.47-1.57,2.22-.4,4.49-.37,6.7-.28,2.22.1,4.43.23,6.65.41,2.2.18,4.43.57,6.44.06,1.96-.54,3.85-2,4.37-3.99.27-.99.22-2.07-.04-3.11-.27-1.06-.52-2.14-1.25-2.88-.71-.75-1.81-1.07-2.89-1.05-1.08.01-2.17.3-3.18.74.97-.54,2.04-.92,3.17-1,1.11-.09,2.35.15,3.24.96.89.84,1.2,2.02,1.52,3.07.32,1.09.44,2.29.18,3.46-.26,1.16-.93,2.23-1.82,3-.89.76-1.91,1.37-3.06,1.68-1.14.32-2.31.33-3.44.29-1.13-.05-2.23-.15-3.33-.24-2.19-.21-4.4-.36-6.6-.49-2.2-.13-4.38-.13-6.55.13-2.17.25-4.28.87-6.49,1.29-.55.09-1.12.16-1.71.1-.57-.05-1.18-.26-1.59-.69-.85-.88-.87-2.13-.74-3.2Z"/>
      <path class="cls-25" d="m227.31,66.17l-2.23.16c-.85-.29-1.85-.19-2.39.49-.54.65-.75,1.55-1,2.42-.44,1.61-.93,3.56-.04,5.04.9,1.39,3.07,1.52,4.62,1.77,1.77.22,3.55.02,5.37-.18,3.64-.44,7.37-.64,11.03-.51,3.67.05,7.33.12,11,.29-5.48.36-11,.39-16.47.64-3.69.14-7.31,1.15-11.04.68-1.83-.32-4.16-.52-5.23-2.27-.98-1.82-.37-3.85.2-5.64.3-.85.53-1.81,1.25-2.54.65-.75,2.02-.78,2.7-.41,0,0,2.23.05,2.23.05h0Z"/>
      <path class="cls-25" d="m233.26,67.73c2.42-.13,4.8-.49,7.07-1.22,2.22-.83,4.6-1.81,7-2.06,3.62-.77,8.27,1.1,9.07,5.04.22,1.24.05,2.52-.45,3.63,1.5-5.25-3.76-8.72-8.47-7.68-2.46.24-4.56,1.15-6.94,1.81-2.38.59-4.85.76-7.28.48h0Z"/>
      <path class="cls-25" d="m215.17,75.06c.59.54,1.19.98,1.83,1.29.64.3,1.34.54,2.01.59,1.37.16,2.73-.35,3.94-1.38-.27.75-.84,1.41-1.57,1.84-.73.44-1.62.62-2.47.53-.86-.1-1.65-.43-2.32-.93-.67-.5-1.18-1.19-1.42-1.95Z"/>
      <path class="cls-25" d="m224.94,79.73c.34-.81.88-1.4,1.47-1.93.61-.5,1.26-.95,2.12-1.17-.34.82-.88,1.4-1.47,1.93-.61.5-1.26.95-2.12,1.17Z"/>
      <path class="cls-25" d="m216.39,79.16c-.73-.26-1.22-.72-1.66-1.22-.41-.52-.77-1.09-.89-1.85.73.26,1.22.71,1.66,1.22.41.52.77,1.09.89,1.85Z"/>
      <path class="cls-25" d="m187.15,99.29c-1.8.44-2.57,1.21-3.97,2.36-.04-1.88,2.33-3.52,3.97-2.36h0Z"/>
      <path class="cls-25" d="m258.02,98.34c-2.11-.13-3.53.05-5.2,1.42.33-2.34,3.68-3.09,5.2-1.42h0Z"/>
      <path class="cls-25" d="m257.45,95.7c-1.98.08-3.15.57-4.63,1.89.04-2.16,3.11-3.39,4.63-1.89h0Z"/>
      <path class="cls-25" d="m251.31,106.09c.77-2.15,5.11-3.99,5.13-.38.02,1.12-.08,2.59-1.21,3.25-1.14.68-2.47.29-3.26-.42,2.38.79,3.74-.32,3.47-2.81.02-1.11-.42-1.37-1.48-1.12-.98.18-1.86.72-2.65,1.48h0Z"/>
      <path class="cls-25" d="m247.9,109.21c-.52,1.65-1.45,3.23-2.83,4.41-.68.6-1.49,1.05-2.35,1.38-.86.32-1.79.44-2.68.47-1.73-.02-3.52.05-5.26-.51-1.73-.52-3.24-1.68-4.17-3.15,1.24,1.22,2.76,2.04,4.37,2.4,1.61.36,3.32.27,5.03.26,1.66,0,3.24-.49,4.58-1.46,1.33-.97,2.44-2.3,3.31-3.8Z"/>
      <path class="cls-25" d="m192.72,109.21c.73,1.4,1.76,2.6,3.02,3.41,1.26.82,2.71,1.15,4.25,1.21,1.51.1,3.02-.1,4.49-.52,1.48-.43,2.9-1.05,4.26-1.88-1.11,1.13-2.49,2.04-4,2.61-1.51.6-3.17.88-4.81.78-.8-.06-1.63-.15-2.43-.41-.79-.26-1.56-.64-2.21-1.16-1.33-1.02-2.2-2.5-2.57-4.04Z"/>
      <path class="cls-7" d="m207.75,114.98c1.02-2.32,2.82-5.33,5.95-7.75,1.8-1.39,3.59-2.78,6.14-2.74,3.31.05,5.55,2.47,6.33,3.31,2.35,2.53,2.81,5.45,2.93,6.55"/>
      <path class="cls-9" d="m228.35,121.31c1-2.95,3.45-5.02,6.24-5.29.17-.02,3.2-.27,5.39,1.89,3.12,3.09,1.65,8.26,1.04,10.39-.54,1.91-1.37,4.79-3.97,5.95-1.08.49-3.17.99-4.16,0-2.02-2.03,2.06-9,1.8-9.12-.13-.06-1.32,1.64-2.05,4.24-.75,2.71-.23,3.62-.79,5.82-.78,3.07-2.77,5.05-3.5,5.76-3.37,3.29-7.45,3.71-8.31,3.78-3.19.26-5.72-.69-7.04-1.32-5.03-2.42-7.08-7.26-8.06-9.58-1.8-4.26-2.01-8.29-2.07-8.27-.04,0,.18,1.7.64,4.27.7,3.93,1.01,4.6.57,5.08-1.03,1.13-5.04.17-7.28-2.36-3.3-3.73-1.45-9.4-.94-10.96.59-1.8,2.25-6.91,5.95-7.24,2.66-.24,4.79,2.13,5.29,2.71"/>
      <path class="cls-14" d="m190.6,94.59c-.35,1.28-.95,4.16,0,7.58.21.75,1.29,4.45,4.89,7.37,1.29,1.05,4.19,3.41,8.26,3.26,4.13-.15,6.87-2.79,8.47-4.32,3.4-3.28,4.45-7.04,4.82-8.42,1.13-4.27.47-7.86.03-9.61-4.24-.72-8.48-1.44-12.71-2.16-4.58,2.1-9.17,4.2-13.75,6.31Z"/>
      <path class="cls-14" d="m249.4,94.59c.35,1.28.95,4.16,0,7.58-.21.75-1.29,4.45-4.89,7.37-1.29,1.05-4.19,3.41-8.26,3.26-4.13-.15-6.87-2.79-8.47-4.32-3.4-3.28-4.45-7.04-4.82-8.42-1.13-4.27-.47-7.86-.03-9.61,4.24-.72,8.48-1.44,12.71-2.16,4.58,2.1,9.17,4.2,13.75,6.31Z"/>
      <line class="cls-9" x1="202.93" y1="89.37" x2="196.13" y2="91.73"/>
      <line class="cls-9" x1="230.61" y1="88.61" x2="239.31" y2="89.37"/>
      <path class="cls-9" d="m215.23,89.23c.02.17,2.43-.4,3.69.76.69.64.84,1.62.85,2.36-.64.22-1.51.38-2.27,0-.63-.32-.83-.84-1.13-1.18-1.22-1.36-4.53-.33-5.46-.05-5.23,1.58-14.21,3.27-16.94,3.79-1.34.25-4.13.75-4.44,2.16-.21.97.83,1.91.53,2.21-.3.29-1.65-.22-2.13-1.26-.36-.78-.11-1.57,0-1.89.54-1.65,2.21-2.33,2.55-2.46-.07-1.86.07-5.16,1.7-8.79.95-2.11,2.42-5.37,6.05-7.37,3.8-2.09,7.63-1.5,8.98-1.23,1.95.44,4.74,1.44,7,3.85,2.54,2.71,4.3,7.09,3.01,8.44-.64.67-2,.54-1.98.66Z"/>
      <path class="cls-9" d="m225.23,88.7c-.02.17-2.43-.4-3.69.76-.69.64-.84,1.62-.85,2.36.64.22,1.51.38,2.27,0,.63-.32.83-.84,1.13-1.18,1.22-1.36,4.53-.33,5.46-.05,5.23,1.58,14.21,3.27,16.94,3.79,1.34.25,4.13.75,4.44,2.16.21.97-.83,1.91-.53,2.21.3.29,1.65-.22,2.13-1.26.36-.78.11-1.57,0-1.89-.54-1.65-2.21-2.33-2.55-2.46.07-1.86-.07-5.16-1.7-8.79-.95-2.11-2.42-5.37-6.05-7.37-3.8-2.09-7.63-1.5-8.98-1.23-1.95.44-4.74,1.44-7,3.85-2.54,2.71-4.3,7.09-3.01,8.44.64.67,2,.54,1.98.66Z"/>
      <path class="cls-17" d="m212.38,91.31c-1.15-.16-2.27,1.85-2.69,2.93-.26.67-.9,2.62,0,4.63.14.3,1.08,2.4,2.36,2.31,1.03-.07,1.66-1.51,1.98-2.27,1.09-2.51.23-4.86-.09-5.62-.38-.89-.8-1.88-1.56-1.98Z"/>
      <path class="cls-17" d="m227.2,90.18c1.15-.16,2.27,1.85,2.69,2.93.26.67.9,2.62,0,4.63-.14.3-1.08,2.4-2.36,2.31-1.03-.07-1.66-1.51-1.98-2.27-1.09-2.51-.23-4.86.09-5.62.38-.89.8-1.88,1.56-1.98Z"/>
    </g>
    <path class="cls-10" d="m90.96,383.23c-30.79,10.46-39.11,15.71-38.55,18.43.49,2.38,7.93,3.43,7.94,3.4.01-.04-10-5.8-17.57-3.12-9.34,3.3-18.04,20.49-10.49,32.88,4.69,7.7,14.53,11.68,23.53,9.92,7.95-1.56,12.56-7.07,13.89-8.79"/>
    <path class="cls-10" d="m41.08,442.71c-.88,1.22-1.04,2.16-.86,2.88,1.06,4.35,15.13,4.41,21.54,4.25"/>
    <path class="cls-10" d="m49.47,449.4c4.59,8.11,9.34,17.62,13.71,28.5,4.49,11.18,7.7,21.61,10.01,30.85"/>
    <path class="cls-10" d="m85.29,515.89c-6.15-7.96-16.06-9.02-20.98-4.82-4.78,4.08-3.49,12-3.4,12.47"/>
    <path class="cls-10" d="m132.77,426.17c-9.25,6.23-17.02,7.89-22.54,8.22-7.91.47-14.07-1.66-16.25,1.46-2.18,3.12,1.3,9.03,2.36,10.87,5.92,10.27,13.98,28.56,25.51,60.09"/>
    <path class="cls-12" d="m148.9,555.4c1.07-.51,2.45-.92,3.67-.4,2.16.92,2.39,4.24,3.21,10.39,1.08,8.11,1.62,12.17,1.13,13.8-2.59,8.69-14.34,14.72-19.28,11.91-3.24-1.84-2.59-6.94-5.67-7.56-2.11-.42-4.81,1.48-5.86,3.78-1.65,3.61,1.65,6.23.19,9.64-.93,2.16-2.94,2.67-7.75,4.91-6.24,2.91-6.14,3.59-11.53,6.24-23.6,11.59-42.33,14.74-42.33,14.74-6.95,1.17-23.34,3.3-42.52-1.32-13.18-3.18-16.64-6.89-18.14-10.2-3.38-7.44.9-17.67,2.46-17.57.72.04.62,2.31,1.7,4.91,3.08,7.42,12.7,10.1,18.14,11.53,2.77.73,13.19,3.27,30.8.38,21.72-3.56,37.06-12.53,44.31-16.87,4.11-2.46,7.42-4.72,9.73-6.38"/>
    <g id="Calque_10" data-name="Calque 10">
      <path class="cls-28" d="m26.66,585.15c-3.79-.25-6.54-.44-9.61.92-1.81.8-3.47,2.02-6.57,2.54-1.21.2-2.09.35-3.33.32-2.58-.06-4.16-.83-4.72-.09-.26.33-.16.79-.04,1.4.22,1.08.9,1.6,1.84,2.99.81,1.2,1.22,1.8,1.49,2.03,1.83,1.56,3.79.44,5.5,1.94.86.76.42,1.09,1.28,2.11,1.64,1.94,3.81,1.4,7.8,2.86,2.32.85,1.75,1.1,3.88,1.86,2.68.96,5.54,2.12,8.54,1.32,1.15-.3,1.26-.6,2.07-.59,2.15.03,2.87,2.11,4.92,3.61,3.15,2.3,7.38,1.71,11.7,1.18,1.31-.16,3.01-.36,5.08-1.14,5.48-2.06,11.13-6.4,10.38-8.88-.34-1.12-1.9-1.55-2.88-1.83-8.68-2.47-16.93-6.25-25.46-9.19-6.13-2.12-7.87-3.1-11.87-3.37Z"/>
      <path class="cls-10" d="m2.9,588.45c-.18.31-.68,1.26-.47,2.46.23,1.33,1.25,2.44,2.64,2.91"/>
      <path class="cls-10" d="m5.83,589.36c-.18.3-.4.73-.57,1.27-.11.36-.9,2.94.66,4.91,1.17,1.47,3.23,2.08,5.24,1.58"/>
      <path class="cls-10" d="m19.27,585.56c-1.71,1.53-3.01,2.63-3.9,3.37-1.19.99-2.31,1.95-3.22,3.63-.11.2-.2.4-.28.62-.72,1.9-.95,5.03.94,7.09,0,0,2.15,2.35,6.63,1.93.18-.02.36-.04.36-.04.83-.1,1.51-.29,2.02-.47"/>
      <path class="cls-10" d="m31.9,586.66c-1.7.98-3.96,2.42-6.43,4.44-2.89,2.37-4.33,3.6-4.72,5.48-.55,2.66,1.05,5.3,2.55,6.71,3.29,3.1,8.11,2.21,9.35,1.98.98-.18,1.92-.51,1.92-.51.25-.09.46-.17.62-.24"/>
      <path class="cls-10" d="m44.19,590.82c-1.3.28-3.28.86-5.39,2.17-1.63,1.02-2.95,1.85-3.78,3.4-1.61,3.03-.45,7.09,1.61,9.54,1.78,2.12,4.06,2.85,5.2,3.21,1.96.62,3.48.57,6.52.47,2.75-.09,4.39-.15,6.52-.76.64-.18,3.86-1.15,7.18-3.87,2.72-2.23,4.33-4.68,5.22-6.32"/>
      <path class="cls-25" d="m57.04,599.04c-1.5-1.16-2.15-2.82-1.74-4.69,1.97.54,2.89,2.99,1.74,4.69h0Z"/>
      <path class="cls-10" d="m40.42,592.1c1.34.07,3.37.27,5.75.89,3.67.95,7.68,1.99,8.41,4.72.45,1.7-.42,3.89-1.89,4.63-1.42.72-3.08-.07-5.29-1.13-2.96-1.41-3.4-2.47-5.29-3.31-1.5-.67-3.9-1.19-7.61-.14"/>
      <path class="cls-25" d="m27.73,589.37c2.31-.55,4.9.78,5.5,3.15-1.21-.04-2.13-.39-3.12-.93-.87-.52-1.71-1.02-2.39-2.21h0Z"/>
      <path class="cls-25" d="m20.76,590.44c-2.07-.23-3.64-.96-5.1-2.46,1.95-1.26,4.88.14,5.1,2.46h0Z"/>
      <path class="cls-10" d="m10.65,588.27c1.4.14,2.39.82,2.45,1.51.07.87-1.4,1.59-2.35,1.8-2.44.53-4.59-1.6-4.92-1.94"/>
      <path class="cls-7" d="m14.99,590.06c.79-.04,2.44-.01,3.97,1.04.44.3,2.3,1.58,1.98,2.93-.21.91-1.35,1.5-2.27,1.61-.86.1-1.45-.24-3.69-1.51-1.45-.82-2.51-1.43-2.81-1.6"/>
      <path class="cls-7" d="m24.71,591.73c.74-.11,2.9-.33,4.92.98.73.48,2.42,1.57,2.55,3.5.1,1.48-.73,3.23-1.98,3.59-1.07.31-1.93-.55-4.16-1.89-1.94-1.17-3.66-1.95-4.89-2.44"/>
      <path class="cls-20" d="m339.46,583.45c-1.37,3.79-8.18,4.33-16.16,4.96-4.58.36-6.86.54-7.51-.57-1.94-3.32,8.39-17.48,16.87-15.02,4.47,1.29,8.08,7.11,6.8,10.63Z"/>
      <path class="cls-12" d="m434.85,577.21c4.33,1.91,14.34,6.33,14.74,13.23.32,5.51-5.63,10.08-7.7,11.66-2.22,1.7-7.24,4.98-20.51,6.01-13.34,1.04-23.56-1.09-25.09-1.42-15.91-3.43-47.15-14.28-46.2-23.95,1.22-12.45,55.34-18.5,84.76-5.53Z"/>
      <path class="cls-22" d="m365.4,382.47c6.22-.48,17.11,3.74,21.62,5.49.58.23,2.48,1.05,6.28,2.71,5.17,2.25,6.13,2.73,7.25,3.87,1.82,1.86,1.57,2.95,3.12,3.81,2.21,1.23,4.21-.22,6.65-.36,7.14-.42,13.06,10.4,13.49,11.22.79,1.49,4.56,8.49,2.37,16.36-.74,2.65-2.32,8.34-6.65,10.9-1.12.66-3.54,1.77-3.95,3.9-.24,1.21.36,1.8-.14,2.8-.58,1.15-1.99,1.57-3.96,2.13-1.73.49-2.81.57-3.38.68-2.45.48-3.65,3.15-7.23,10.75-3.56,7.56-4.35,9.1-6.01,13.05-1.12,2.66-1.9,4.68-2.23,5.54-.43,1.12-1.62,4.25-3.23,9.1-1.49,4.49-2.42,7.98-3.42,11.51-1.33,4.67-1.81,6.59-.81,8.35,1.45,2.55,4.01,1.23,6.91,3.76,4.23,3.71,1.67,9.09,6.36,13,1.79,1.49,2.55,1.04,3.75,2.59,2.39,3.09,2.22,8.61-.37,10.68-1.72,1.37-3.73.62-7.48.25-4.33-.43-8.55.33-17.01,1.84-7.47,1.34-11.21,2.01-15.73,4.25-3.48,1.73-3.87,2.58-8.5,4.96-4.43,2.27-7.73,3.97-11.48,4.68-11.22,2.11-21.27-5.58-25.09-8.5-4.67-3.58-6.53-6.56-7.09-7.51-1.41-2.39-4.33-7.34-2.83-12.9,1.13-4.22,4.59-7.93,8.36-9.64,3.27-1.47,6.09-1.14,6.85-3.13.63-1.67-.84-3.21.16-5.52.44-1.02,1.12-1.61,1.63-2.06,3.28-2.87,8.26-2.32,9.21-2.19,1.5.2,1.78.48,2.49.23,2.15-.78,2.51-4.53,2.89-6.85.77-4.66,3.72-8.72,5.02-13.26,1.79-6.22,3.86-8.82,15.95-34.51,3.32-7.05,4.3-9.85,2.94-11.9-3.23-4.85-14.94,2.09-19.89-2.46-8.48-7.79,6.26-46.32,23.19-47.62Z"/>
      <path class="cls-21" d="m323.13,545.42c-2.54-2.04-5.09-4.08-7.63-6.11-1.75,1.38-4.58,4-6.62,8.15-1.27,2.59-1.85,4.98-2.13,6.77,0,0-.04.6-.03,1.16.11,7.82,12.8,16.18,12.8,16.18,4.07,2.68,4.95,2.55,14.04,6.92,6.81,3.27,6.16,3.27,17.95,9.27,14.69,7.48,17.84,8.52,21.99,8.94,5.13.51,9.3-.2,12.13-.67,7.06-1.2,11.17-3.32,17.01-5.76,14.22-5.94,21.32-8.86,27.83-8.51,11.01.6,17.29,7.51,22.09,3.8,1.36-1.05,2.79-3.11,2.43-4.94-.49-2.53-3.96-2.39-6.88-5.71-2.38-2.71-1.7-4.66-3.56-9.13-1.05-2.53-2.95-5.95-6.66-9.54-9.03-6.55-14.35-8.04-17.61-8.03-.78,0-2.66.1-4.41-1.04-2.34-1.53-2.03-3.7-4.01-6.47-2.1-2.93-5.06-4.14-7.28-5.05-3.69-1.51-6.92-1.56-9.82-1.5-9.18.19-15.95.33-25.32,3.19-7.05,2.15-12.96,5.05-15.68,6.39-7.63,3.77-9.15,5.56-13.3,6.27-3.74.64-9.47.38-17.32-4.58Z"/>
      <path class="cls-10" d="m365.11,379.92c30.79,10.46,39.11,15.71,38.55,18.43-.49,2.38-7.93,3.43-7.94,3.4-.01-.04,10-5.8,17.57-3.12,9.34,3.3,18.04,20.49,10.49,32.88-4.69,7.7-14.53,11.68-23.53,9.92-7.95-1.56-12.56-7.07-13.89-8.79"/>
      <path class="cls-10" d="m414.99,439.4c.88,1.22,1.04,2.16.86,2.88-1.06,4.35-15.13,4.41-21.54,4.25"/>
      <path class="cls-10" d="m406.6,446.1c-4.59,8.11-9.34,17.62-13.71,28.5-4.49,11.18-7.7,21.61-10.01,30.85"/>
      <path class="cls-10" d="m370.78,512.58c6.15-7.96,16.06-9.02,20.98-4.82,4.78,4.08,3.49,12,3.4,12.47"/>
      <path class="cls-10" d="m324.53,419.51c10.3,10.42,18.71,12.78,24.89,12.66,5.41-.11,10.66-2.15,12.66.38,2.2,2.78-1.26,8.88-2.36,10.87-5.26,9.52-13.1,27.22-25.51,60.09"/>
      <path class="cls-12" d="m307.17,552.1c-1.07-.51-2.45-.92-3.67-.4-2.16.92-2.39,4.24-3.21,10.39-1.08,8.11-1.62,12.17-1.13,13.8,2.59,8.69,14.34,14.72,19.28,11.91,3.24-1.84,2.59-6.94,5.67-7.56,2.11-.42,4.81,1.48,5.86,3.78,1.65,3.61-1.65,6.23-.19,9.64.93,2.16,2.94,2.67,7.75,4.91,6.24,2.91,6.14,3.59,11.53,6.24,23.6,11.59,42.33,14.74,42.33,14.74,6.95,1.17,23.34,3.3,42.52-1.32,13.18-3.18,16.64-6.89,18.14-10.2,3.38-7.44-.9-17.67-2.46-17.57-.72.04-.62,2.31-1.7,4.91-3.08,7.42-12.7,10.1-18.14,11.53-2.77.73-13.19,3.27-30.8.38-21.72-3.56-37.06-12.53-44.31-16.87-4.11-2.46-7.42-4.72-9.73-6.38"/>
      <path class="cls-28" d="m429.42,581.85c3.79-.25,6.54-.44,9.61.92,1.81.8,3.47,2.02,6.57,2.54,1.21.2,2.09.35,3.33.32,2.58-.06,4.16-.83,4.72-.09.26.33.16.79.04,1.4-.22,1.08-.9,1.6-1.84,2.99-.81,1.2-1.22,1.8-1.49,2.03-1.83,1.56-3.79.44-5.5,1.94-.86.76-.42,1.09-1.28,2.11-1.64,1.94-3.81,1.4-7.8,2.86-2.32.85-1.75,1.1-3.88,1.86-2.68.96-5.54,2.12-8.54,1.32-1.15-.3-1.26-.6-2.07-.59-2.15.03-2.87,2.11-4.92,3.61-3.15,2.3-7.38,1.71-11.7,1.18-1.31-.16-3.01-.36-5.08-1.14-5.48-2.06-11.13-6.4-10.38-8.88.34-1.12,1.9-1.55,2.88-1.83,8.68-2.47,16.93-6.25,25.46-9.19,6.13-2.12,7.87-3.1,11.87-3.37Z"/>
      <path class="cls-10" d="m453.18,585.15c.18.31.68,1.26.47,2.46-.23,1.33-1.25,2.44-2.64,2.91"/>
      <path class="cls-10" d="m450.24,586.05c.18.3.4.73.57,1.27.11.36.9,2.94-.66,4.91-1.17,1.47-3.23,2.08-5.24,1.58"/>
      <path class="cls-10" d="m436.8,582.25c1.71,1.53,3.01,2.63,3.9,3.37,1.19.99,2.31,1.95,3.22,3.63.11.2.2.4.28.62.72,1.9.95,5.03-.94,7.09,0,0-2.15,2.35-6.63,1.93-.18-.02-.36-.04-.36-.04-.83-.1-1.51-.29-2.02-.47"/>
      <path class="cls-10" d="m424.17,583.35c1.7.98,3.96,2.42,6.43,4.44,2.89,2.37,4.33,3.6,4.72,5.48.55,2.66-1.05,5.3-2.55,6.71-3.29,3.1-8.11,2.21-9.35,1.98-.98-.18-1.92-.51-1.92-.51-.25-.09-.46-.17-.62-.24"/>
      <path class="cls-10" d="m411.88,587.51c1.3.28,3.28.86,5.39,2.17,1.63,1.02,2.95,1.85,3.78,3.4,1.61,3.03.45,7.09-1.61,9.54-1.78,2.12-4.06,2.85-5.2,3.21-1.96.62-3.48.57-6.52.47-2.75-.09-4.39-.15-6.52-.76-.64-.18-3.86-1.15-7.18-3.87-2.72-2.23-4.33-4.68-5.22-6.32"/>
      <path class="cls-25" d="m399.03,595.73c-1.16-1.7-.23-4.15,1.74-4.69.42,1.87-.23,3.52-1.74,4.69h0Z"/>
      <path class="cls-10" d="m415.65,588.79c-1.34.07-3.37.27-5.75.89-3.67.95-7.68,1.99-8.41,4.72-.45,1.7.42,3.89,1.89,4.63,1.42.72,3.08-.07,5.29-1.13,2.96-1.41,3.4-2.47,5.29-3.31,1.5-.67,3.9-1.19,7.61-.14"/>
      <path class="cls-25" d="m428.35,586.06c-.68,1.19-1.52,1.7-2.39,2.21-.98.54-1.9.89-3.12.93.6-2.36,3.19-3.69,5.5-3.15h0Z"/>
      <path class="cls-25" d="m435.32,587.13c.23-2.31,3.15-3.72,5.1-2.46-1.46,1.49-3.03,2.23-5.1,2.46h0Z"/>
      <path class="cls-10" d="m445.43,584.96c-1.4.14-2.39.82-2.45,1.51-.07.87,1.4,1.59,2.35,1.8,2.44.53,4.59-1.6,4.92-1.94"/>
      <path class="cls-7" d="m441.08,586.75c-.79-.04-2.44-.01-3.97,1.04-.44.3-2.3,1.58-1.98,2.93.21.91,1.35,1.5,2.27,1.61.86.1,1.45-.24,3.69-1.51,1.45-.82,2.51-1.43,2.81-1.6"/>
      <path class="cls-7" d="m431.36,588.42c-.74-.11-2.9-.33-4.92.98-.73.48-2.42,1.57-2.55,3.5-.1,1.48.73,3.23,1.98,3.59,1.07.31,1.93-.55,4.16-1.89,1.94-1.17,3.66-1.95,4.89-2.44"/>
      <path class="cls-10" d="m440.51,573.05c8.64,1.19,14.32,4.53,14.55,8.13.09,1.39-.63,2.99-1.89,3.97-4.29,3.32-11.01-3.57-21.92-3.4-3.86.06-6.44.98-10.77,2.46-28.67,9.79-33.79,14.29-44.79,12.85-5.31-.69-10.08-2.65-14.99-4.67-6.56-2.69-8.31-4.33-15.82-8.37-15.14-8.15-18.19-7.15-27.02-13.61-9.01-6.58-10.5-10.31-10.96-12.85-1.67-9.13,7.25-17.09,8.59-18.25"/>
      <path class="cls-10" d="m337.62,550.25c-.77,1.49-3.16,6.57-1.8,12.98,1.09,5.1,4.67,11.82,10.02,13.04,7.84,1.79,11.64-9.11,27.59-18.71,3.79-2.28,18.18-10.45,36.85-10.02,7.9.19,18.95.44,27.59,8.69,7.04,6.72,8.88,15.31,9.45,19.28"/>
      <path class="cls-10" d="m322.48,510.2c-7.21.82-13.1,4.65-14.91,10.03-2.4,7.11,3.35,13.79,6.8,17.86.74.87,11.53,13.19,26.08,11.91,7.03-.62,6.87-3.7,18.99-9.07,2.8-1.24,17-7.36,34.58-6.8,7.75.24,11.93,1.65,15.31,4.25,3.71,2.86,5.59,6.49,6.52,8.79"/>
      <path class="cls-10" d="m339.6,525.9c4.08.95,10.38,1.85,17.57.28,9.62-2.1,11.01-6.49,19.56-8.22,11.02-2.23,24.87,1.78,26.65,8.79.71,2.81-.62,5.73-2.25,8.09"/>
      <path class="cls-10" d="m335.72,499.14c-.98-.2-2.45-.4-4.23-.27-.66.05-6.41.53-8.61,3.5-2.43,3.28-.95,10.15,4.82,15.59"/>
    </g>
    <path class="cls-10" d="m15.56,576.36c-8.64,1.19-14.32,4.53-14.55,8.13-.09,1.39.63,2.99,1.89,3.97,4.29,3.32,11.01-3.57,21.92-3.4,3.86.06,6.44.98,10.77,2.46,28.67,9.79,33.79,14.29,44.79,12.85,5.31-.69,10.08-2.65,14.99-4.67,6.56-2.69,8.31-4.33,15.82-8.37,15.14-8.15,18.19-7.15,27.02-13.61,9.01-6.58,10.5-10.31,10.96-12.85,1.67-9.13-7.25-17.09-8.59-18.25"/>
    <path class="cls-10" d="m118.45,553.56c.77,1.49,3.16,6.57,1.8,12.98-1.09,5.1-4.67,11.82-10.02,13.04-7.84,1.79-11.64-9.11-27.59-18.71-3.79-2.28-18.18-10.45-36.85-10.02-7.9.19-18.95.44-27.59,8.69-7.04,6.72-8.88,15.31-9.45,19.28"/>
    <path class="cls-10" d="m133.59,513.51c7.21.82,13.1,4.65,14.91,10.03,2.4,7.11-3.35,13.79-6.8,17.86-.74.87-11.53,13.19-26.08,11.91-7.03-.62-6.87-3.7-18.99-9.07-2.8-1.24-17-7.36-34.58-6.8-7.75.24-11.93,1.65-15.31,4.25-3.71,2.86-5.59,6.49-6.52,8.79"/>
    <path class="cls-10" d="m116.47,529.21c-4.08.95-10.38,1.85-17.57.28-9.62-2.1-11.01-6.49-19.56-8.22-11.02-2.23-24.87,1.78-26.65,8.79-.71,2.81.62,5.73,2.25,8.09"/>
    <path class="cls-10" d="m120.36,502.45c.98-.2,2.45-.4,4.23-.27.66.05,6.41.53,8.61,3.5,2.43,3.28.95,10.15-4.82,15.59"/>
  </g>
  <g id="Calque_3" data-name="Calque 3">
    <g>
      <path class="cls-15" d="m60.47,220.5c16.95-23.52,47.59-16.01,155.91-17.57,112.46-1.62,143.77-10.64,162.14,13.04,8.95,11.54,5.34,18.6,6.24,99.78.86,78.32,4.37,84.7-3.97,96.38-13.33,18.67-35.06,20.22-160.45,22.17-103.69,1.61-123.22,1.08-138.89-15.93-10.99-11.93-14.28-41-20.41-98.65-6.18-58.1-9.09-87.38-.57-99.21Z"/>
      <text class="cls-24" transform="translate(205.1 429)"><tspan x="0" y="0">j’ai </tspan><tspan class="cls-29" x="12.03" y="0">s</tspan><tspan class="cls-23" x="14.7" y="0">o</tspan><tspan x="18.23" y="0">if, 1€ s</tspan><tspan class="cls-30" x="36.66" y="0">v</tspan><tspan x="39.51" y="0">p ...</tspan></text>
      <g>
        <path class="cls-2" d="m134.16,228.68c-5.01-5.47-14.96-7.23-22.78-4.96-2.33.68-5.97,1.73-8.2,4.92-3.58,5.13-.35,11.26,0,11.9,3.53,4.53,7.16,7.33,9.91,9.07,3.27,2.07,6.11,3.17,5.84,3.97-.29.85-3.99,1.13-7.07,0-2.52-.93-2.77-2.12-6.43-3.97-2.33-1.18-3.62-1.83-4.82-1.42-2.06.7-2.68,4.08-2.25,6.52.57,3.26,3.18,5.61,4.82,7.08,2.38,2.14,3.42,2.11,4.5,3.97.38.65,1.7,2.92.96,5.38-.59,2-2.15,2.84-1.61,3.97.29.6,1.1,1.11,1.93,1.13.07,0,.92.01,1.5-.52.61-.55.59-1.39.05-4.53-.45-2.61-.61-3.03-.24-3.63.54-.9,1.32-.67,3.15-1.83,2.22-1.42,2.23-2.49,3.42-2.56,1.42-.09,2.82,1.43,3.37,2.69.15.33.54,1.35.16,3.07-.73,3.34-3.09,3.61-3.27,5.95-.16,2.06,1.47,4.41,3.7,5.1,1.29.4,2.47.15,3.21,0,.62-.13,3.13-.65,4.34-2.69.99-1.67.51-3.37.43-3.64-.66-2.21-2.62-2.47-3.05-4.34-.27-1.18.23-2.28,1.12-3.64,4.02-6.09,8.97-6.73,10.87-11.43,1.34-3.31.11-6.48-.21-7.27-1.02-2.47-2.82-4.04-3.91-4.96-2.04-1.73-4.05-2.62-5.95-3.45-4.75-2.07-7.29-1.98-8.3-3.92-.5-.96-.39-1.96-.21-2.64.61-.75,1.18-.94,1.55-.99,2.12-.3,3.47,3.14,8.36,6.42,2.86,1.92,4.05,1.86,4.66,1.74,2.19-.44,3.1-2.93,3.16-3.1,1.12-3.22-1.9-6.48-2.72-7.38Z"/>
        <g>
          <path class="cls-2" d="m159.17,222.65c-2.15.26-11.81,1.69-16.66,9.44-.37.59-3.54,5.83-2.14,12.23,1.07,4.9,4.39,8.55,5.3,9.54,3.28,3.53,5.98,4.24,7.02,7.74.26.89.83,2.8.16,5.01-.6,1.99-1.69,2.5-2.09,4.77-.19,1.1-.45,2.58.54,3.78,1.13,1.37,3.2,1.51,3.96,1.56,2.83.19,6.42-1.11,7.39-3.4,1.2-2.82-2.69-4.42-1.82-7.93.78-3.18,4.8-5.2,7.55-5.48.46-.05,1.78-.18,2.25.43.52.67-.6,1.49-.38,2.88.2,1.22,1.39,2.22,2.41,2.69,1.23.56,2,.24,2.6.85.61.62.45,1.63.24,2.34-.43.64-.97,1.67-.91,2.95.03.61.06,1.35.7,1.79.67.47,1.56.31,1.71.28.67-.12,1.35-.52,1.66-1.09.34-.61.1-1.17-.91-3.68-.84-2.09-.97-2.43-.86-2.98.19-.94.82-1.14,1.77-2.31,1.34-1.66,1.73-3.32,2.04-4.63.42-1.8.14-2.45.27-4.16.22-2.96,1.31-4.29,2.09-6.52,1.97-5.6-.04-11.04-.8-12.82-1.54-3.57-3.87-5.85-5.3-7.23-1.74-1.67-3.92-3.76-7.55-5.1-4.4-1.62-8.37-1.19-10.23-.97Z"/>
          <path class="cls-13" d="m159.01,231.1c-2.57.5-3.75,6.96-2.3,12.14,1.54,5.52,6.42,10.96,9,10.27,2.66-.71,3-7.99.96-13.53-1.53-4.15-5.15-9.37-7.66-8.88Z"/>
        </g>
        <path class="cls-2" d="m201.54,222.65c-2.39-.14-6.16-.33-9.86,1.46-2.57,1.25-3.22,2.54-3.43,3.02-.17.4-.8,1.9,0,2.83.87,1.02,2.55.35,4.07,1.51.22.17.79.65,1.29,1.89,1.21,3.05.52,7.02.12,10.14-.9,7.2.11,7.52-1.24,9.18-1.88,2.32-5.04,3.23-4.86,5.21.05.59.41,1,.72,1.35,1.61,1.82,4.02.97,7.39,2.27,2.88,1.11,4.47,3.02,4.93,3.59,1.62,2,1.97,3.93,2.04,4.34.12.71.25,1.53,0,2.55-.53,2.18-2.09,2.35-2.14,3.78-.06,1.72,2.16,3.35,4.07,3.85.54.14,1.53.4,2.57,0,1.15-.45,1.61-1.42,1.82-1.87.07-.15.74-1.64,0-3.21-.45-.95-1-1.04-1.61-1.79-1.72-2.13-.55-5.37,0-6.89.3-.83.85-2.32,2.25-3.87,2.56-2.84,5.26-2.88,5.36-4.25.1-1.45-2.87-1.68-4.93-4.08-1.59-1.86-1.01-3.13-1.39-10.18-.41-7.54-1.2-8.7.21-10.77,1.7-2.47,4.36-2.93,4.18-4.72-.17-1.69-2.46-2.83-3.96-3.59-2.85-1.43-5.52-1.62-7.61-1.75Z"/>
        <g>
          <path class="cls-2" d="m220.63,228.64c.63.22,2.37,1.2,1.81,11.14-.33,5.86-.5,8.79-1.81,10.48-1.65,2.13-4.16,3.48-3.87,5.76.15,1.17.95,2.04,1.07,2.17,1.61,1.72,3.81,1.16,6.11,3.21.66.59.98,1.09,1.07,1.23,1,1.59,1.2,3.95,0,4.82-.56.4-1.14.28-1.29.66-.19.5.77.83,1.29,1.89.58,1.18.22,2.45,0,3.21-.06.2-.29.76-.75,1.89-.49,1.19-.65,1.51-.54,1.98.13.54.59,1.19,1.29,1.32,1.01.19,2.18-.81,2.25-1.7.07-.86-.95-.99-1.18-2.27-.16-.92.21-1.68.46-2.17.22-.45.4-.8.72-.85.5-.07.72.69,1.5,1.13,1.17.67,3.13.39,4.18-.47.62-.51.27-.69,1.29-2.27.79-1.23,1.29-1.57,1.18-2.17-.11-.62-.73-.82-1.29-1.32-1.58-1.42-1.77-4.43-.43-5.86.87-.93,1.65-.39,4.29-1.61,1.61-.74,3.03-1.4,3.43-2.67.47-1.49-.73-2.95-1.04-3.33-1.26-1.52-2.46-1.29-3.78-2.41-2.41-2.06-2.71-6.54-.64-7.9,1.01-.66,2.68-.65,3.75,0,.61.37,1.05.96,1.5,2.8.84,3.46.08,4.71.86,6.89.32.91.98,2.16,2.46,3.49,2.28,1.39,3.1,2.77,3.43,3.78.62,1.92.05,4.32,1.5,5.29.18.12.62.37.86.85.06.12.32.69,0,1.61-.42,1.17-1.24,1.33-1.82,2.17-.83,1.2-.39,2.64.43,5.29.45,1.47,1.01,2.54,1.39,3.21.99,1.71,1.48,2.56,2.57,3.12,1.38.7,3.38.79,4.82,0,1.26-.69,1.64-2.17,2.36-5.1.91-3.75,1.47-6.18,0-7.46-.52-.45-1.18-.66-1.71-1.51,0,0-.62-.97-.54-2.27.22-3.42,7.29-5.01,8.04-9.44.2-1.19,0-2.93-1.18-3.68-1.37-.88-2.94.29-4.07-.46-1.73-1.16,1.06-4.53-.64-7.47-1.59-2.75-5.52-2.35-5.79-4.25-.29-2.02,4.12-2.91,4.82-6.42.32-1.6-.3-2.9-.75-3.87-2.23-4.75-8.28-6.2-9.43-6.47-1.13-.27-2.18-.35-4.29-.52-4.02-.32-5.35-.02-9.42-.04-1.74,0-7.71-.08-13.19.04-.8.02-2.39.07-3.64,1.04-1.3,1.01-1.48,2.44-1.5,2.64-.05.44-.18,1.66.64,2.36.92.79,2.15.1,3.23.47Z"/>
          <path class="cls-4" d="m237.86,229.49c-.97.52-1.14,1.55-1.3,2.5-.12.72-.62,3.78,1.3,4.68.7.33,1.64.34,2.36,0,2.2-1.04,1.23-4.92,1.07-5.57-.22-.89-.51-1.33-.96-1.61-.73-.44-1.77-.37-2.46,0Z"/>
        </g>
        <path class="cls-2" d="m270.97,230.25c1.84,1.21,1.73,3.3,1.61,11.57-.13,8.96-.06,10.37-1.61,11.66-1.22,1.02-3.12,1.68-3.75,3.64-.39,1.23-.09,2.32,0,2.59.69,2.22,2.87,2.92,5.89,6.14.31.33.85.93,1.07,1.82.27,1.09-.1,2.04-.21,2.34-.47,1.18-1.08,1.23-1.39,2.27-.08.27-.32,1.21.11,2.17.64,1.42,2.41,2.15,3.86,2.27,1.38.11,3.24-.28,4.18-1.51,1.06-1.4.43-3.22,0-4.44-.58-1.66-1.25-1.84-1.61-3.49-.25-1.19-.28-2.86.43-3.12.7-.25,1.66,1.01,2.14.76.43-.23-.21-1.27,0-2.64.16-1.03.73-1.94,1.29-2.46,2.23-2.08,7.24-.54,9.32.09,3.22.99,4.06,2.13,4.29,2.46.16.23,1.28,1.93.54,3.21-.44.77-1.13.65-1.61,1.51-.45.81-.41,1.92.21,2.74.55.71,1.35.96,1.93,1.13.41.13,1.89.52,3.43,0,2.36-.8,3.08-3.17,3.32-3.97.6-2-.24-2.42,0-4.34.45-3.59,3.63-3.97,4.93-8.31.37-1.23.83-2.89,0-4.65-.7-1.47-2.39-3.21-4.71-3.38-1.71-.12-3.04.65-3.54.94-2.23,1.31-1.7,2.71-3.86,4.34-1.48,1.12-3.04,1.46-5.04,1.89-2.08.45-3.69.8-5.04,0-1.03-.61-1.38-1.58-1.5-1.89-.52-1.41.04-2.64.64-3.97.58-1.28.97-2.12,1.98-2.55,1.08-.46,2.65-.35,3.05.28.41.65-.72,1.28-.64,2.74,0,.17.11,1.58,1.29,2.27,1.13.65,2.54.23,3,.09,2.7-.81,3.73-3.53,3.96-4.16.21-.55.94-2.58.11-4.82-.84-2.28-2.41-2.4-2.68-4.44-.2-1.55.63-2.1,0-3.31-.44-.86-1.39-1.61-2.57-1.89-.33-.08-1.28-.26-2.36.09-1.25.41-2.32,1.43-2.46,2.55-.09.69.26.75.27,1.7,0,.54,0,1.82-.96,2.45-.78.51-2.11.54-2.84,0-1.41-1.06-.07-4.16.54-5.57.33-.77.5-1.16.88-1.58,1.31-1.45,3.43-1.65,4.98-1.8,1.1-.11,3-.27,5.08.54.43.17,2.95,1.16,2.89,2.36-.03.65-.79.92-.75,1.7.04.69.67,1.18.86,1.32,1.27.98,3.59.89,5.14,0,1.23-.71,1.69-1.76,2.04-2.55.12-.28,1.45-3.44-.43-6.33,0,0-.95-1.46-2.81-2.5-3.7-2.07-15.86-2.71-31.9-1.61-2.07-.14-3.95.76-4.71,2.22-.05.1-.79,1.57,0,3.02.8,1.48,2.47,1.52,3.75,2.36Z"/>
        <path class="cls-2" d="m313.91,230.12c1.84,1.21,1.73,3.3,1.61,11.57-.13,8.96-.06,10.37-1.61,11.66-1.22,1.02-3.12,1.68-3.75,3.64-.39,1.23-.09,2.32,0,2.59.69,2.22,2.87,2.92,5.89,6.14.31.33.85.93,1.07,1.82.27,1.09-.1,2.04-.21,2.34-.47,1.18-1.08,1.23-1.39,2.27-.08.27-.32,1.21.11,2.17.64,1.42,2.41,2.15,3.86,2.27,1.38.11,3.24-.28,4.18-1.51,1.06-1.4.43-3.22,0-4.44-.58-1.66-1.25-1.84-1.61-3.49-.25-1.19-.28-2.86.43-3.12.7-.25,1.66,1.01,2.14.76.43-.23-.21-1.27,0-2.64.16-1.03.73-1.94,1.29-2.46,2.23-2.08,7.24-.54,9.32.09,3.22.99,4.06,2.13,4.29,2.46.16.23,1.28,1.93.54,3.21-.44.77-1.13.65-1.61,1.51-.45.81-.41,1.92.21,2.74.55.71,1.35.96,1.93,1.13.41.13,1.89.52,3.43,0,2.36-.8,3.08-3.17,3.32-3.97.6-2-.24-2.42,0-4.34.45-3.59,3.63-3.97,4.93-8.31.37-1.23.83-2.89,0-4.65-.7-1.47-2.39-3.21-4.71-3.38-1.71-.12-3.04.65-3.54.94-2.23,1.31-1.7,2.71-3.86,4.34-1.48,1.12-3.04,1.46-5.04,1.89-2.08.45-3.69.8-5.04,0-1.03-.61-1.38-1.58-1.5-1.89-.52-1.41.04-2.64.64-3.97.58-1.28.97-2.12,1.98-2.55,1.08-.46,2.65-.35,3.05.28.41.65-.72,1.28-.64,2.74,0,.17.11,1.58,1.29,2.27,1.13.65,2.54.23,3,.09,2.7-.81,3.73-3.53,3.96-4.16.21-.55.94-2.58.11-4.82-.84-2.28-2.41-2.4-2.68-4.44-.2-1.55.63-2.1,0-3.31-.44-.86-1.39-1.61-2.57-1.89-.33-.08-1.28-.26-2.36.09-1.25.41-2.32,1.43-2.46,2.55-.09.69.26.75.27,1.7,0,.54,0,1.82-.96,2.45-.78.51-2.11.54-2.84,0-1.41-1.06-.07-4.16.54-5.57.33-.77.5-1.16.88-1.58,1.31-1.45,3.43-1.65,4.98-1.8,1.1-.11,3-.27,5.08.54.43.17,2.95,1.16,2.89,2.36-.03.65-.79.92-.75,1.7.04.69.67,1.18.86,1.32,1.27.98,3.59.89,5.14,0,1.23-.71,1.69-1.76,2.04-2.55.12-.28,1.45-3.44-.43-6.33,0,0-.95-1.46-2.81-2.5-3.7-2.07-15.86-2.71-31.9-1.61-2.07-.14-3.95.76-4.71,2.22-.05.1-.79,1.57,0,3.02.8,1.48,2.47,1.52,3.75,2.36Z"/>
        <path class="cls-2" d="m235.35,301.15c1.84,1.21,1.73,3.3,1.61,11.57-.13,8.96-.06,10.37-1.61,11.66-1.22,1.02-3.12,1.68-3.75,3.64-.39,1.23-.09,2.32,0,2.59.69,2.22,2.87,2.92,5.89,6.14.31.33.85.93,1.07,1.82.27,1.09-.1,2.04-.21,2.34-.47,1.18-1.08,1.23-1.39,2.27-.08.27-.32,1.21.11,2.17.64,1.42,2.41,2.15,3.86,2.27,1.38.11,3.24-.28,4.18-1.51,1.06-1.4.43-3.22,0-4.44-.58-1.66-1.25-1.84-1.61-3.49-.25-1.19-.28-2.86.43-3.12.7-.25,1.66,1.01,2.14.76.43-.23-.21-1.27,0-2.64.16-1.03.73-1.94,1.29-2.46,2.23-2.08,7.24-.54,9.32.09,3.22.99,4.06,2.13,4.29,2.46.16.23,1.28,1.93.54,3.21-.44.77-1.13.65-1.61,1.51-.45.81-.41,1.92.21,2.74.55.71,1.35.96,1.93,1.13.41.13,1.89.52,3.43,0,2.36-.8,3.08-3.17,3.32-3.97.6-2-.24-2.42,0-4.34.45-3.59,3.63-3.97,4.93-8.31.37-1.23.83-2.89,0-4.65-.7-1.47-2.39-3.21-4.71-3.38-1.71-.12-3.04.65-3.54.94-2.23,1.31-1.7,2.71-3.86,4.34-1.48,1.12-3.04,1.46-5.04,1.89-2.08.45-3.69.8-5.04,0-1.03-.61-1.38-1.58-1.5-1.89-.52-1.41.04-2.64.64-3.97.58-1.28.97-2.12,1.98-2.55,1.08-.46,2.65-.35,3.05.28.41.65-.72,1.28-.64,2.74,0,.17.11,1.58,1.29,2.27,1.13.65,2.54.23,3,.09,2.7-.81,3.73-3.53,3.96-4.16.21-.55.94-2.58.11-4.82-.84-2.28-2.41-2.4-2.68-4.44-.2-1.55.63-2.1,0-3.31-.44-.86-1.39-1.61-2.57-1.89-.33-.08-1.28-.26-2.36.09-1.25.41-2.32,1.43-2.46,2.55-.09.69.26.75.27,1.7,0,.54,0,1.82-.96,2.45-.78.51-2.11.54-2.84,0-1.41-1.06-.07-4.16.54-5.57.33-.77.5-1.16.88-1.58,1.31-1.45,3.43-1.65,4.98-1.8,1.1-.11,3-.27,5.08.54.43.17,2.95,1.16,2.89,2.36-.03.65-.79.92-.75,1.7.04.69.67,1.18.86,1.32,1.27.98,3.59.89,5.14,0,1.23-.71,1.69-1.76,2.04-2.55.12-.28,1.45-3.44-.43-6.33,0,0-.95-1.46-2.81-2.5-3.7-2.07-15.86-2.71-31.9-1.61-2.07-.14-3.95.76-4.71,2.22-.05.1-.79,1.57,0,3.02.8,1.48,2.47,1.52,3.75,2.36Z"/>
        <path class="cls-2" d="m290.05,365.69c1.84,1.21,1.73,3.3,1.61,11.57-.13,8.96-.06,10.37-1.61,11.66-1.22,1.02-3.12,1.68-3.75,3.64-.39,1.23-.09,2.32,0,2.59.69,2.22,2.87,2.92,5.89,6.14.31.33.85.93,1.07,1.82.27,1.09-.1,2.04-.21,2.34-.47,1.18-1.08,1.23-1.39,2.27-.08.27-.32,1.21.11,2.17.64,1.42,2.41,2.15,3.86,2.27,1.38.11,3.24-.28,4.18-1.51,1.06-1.4.43-3.22,0-4.44-.58-1.66-1.25-1.84-1.61-3.49-.25-1.19-.28-2.86.43-3.12.7-.25,1.66,1.01,2.14.76.43-.23-.21-1.27,0-2.64.16-1.03.73-1.94,1.29-2.46,2.23-2.08,7.24-.54,9.32.09,3.22.99,4.06,2.13,4.29,2.46.16.23,1.28,1.93.54,3.21-.44.77-1.13.65-1.61,1.51-.45.81-.41,1.92.21,2.74.55.71,1.35.96,1.93,1.13.41.13,1.89.52,3.43,0,2.36-.8,3.08-3.17,3.32-3.97.6-2-.24-2.42,0-4.34.45-3.59,3.63-3.97,4.93-8.31.37-1.23.83-2.89,0-4.65-.7-1.47-2.39-3.21-4.71-3.38-1.71-.12-3.04.65-3.54.94-2.23,1.31-1.7,2.71-3.86,4.34-1.48,1.12-3.04,1.46-5.04,1.89-2.08.45-3.69.8-5.04,0-1.03-.61-1.38-1.58-1.5-1.89-.52-1.41.04-2.64.64-3.97.58-1.28.97-2.12,1.98-2.55,1.08-.46,2.65-.35,3.05.28.41.65-.72,1.28-.64,2.74,0,.17.11,1.58,1.29,2.27,1.13.65,2.54.23,3,.09,2.7-.81,3.73-3.53,3.96-4.16.21-.55.94-2.58.11-4.82-.84-2.28-2.41-2.4-2.68-4.44-.2-1.55.63-2.1,0-3.31-.44-.86-1.39-1.61-2.57-1.89-.33-.08-1.28-.26-2.36.09-1.25.41-2.32,1.43-2.46,2.55-.09.69.26.75.27,1.7,0,.54,0,1.82-.96,2.45-.78.51-2.11.54-2.84,0-1.41-1.06-.07-4.16.54-5.57.33-.77.5-1.16.88-1.58,1.31-1.45,3.43-1.65,4.98-1.8,1.1-.11,3-.27,5.08.54.43.17,2.95,1.16,2.89,2.36-.03.65-.79.92-.75,1.7.04.69.67,1.18.86,1.32,1.27.98,3.59.89,5.14,0,1.23-.71,1.69-1.76,2.04-2.55.12-.28,1.45-3.44-.43-6.33,0,0-.95-1.46-2.81-2.5-3.7-2.07-15.86-2.71-31.9-1.61-2.07-.14-3.95.76-4.71,2.22-.05.1-.79,1.57,0,3.02.8,1.48,2.47,1.52,3.75,2.36Z"/>
        <path class="cls-2" d="m270.85,358.02c-2.39-.14-6.16-.33-9.86,1.46-2.57,1.25-3.22,2.54-3.43,3.02-.17.4-.8,1.9,0,2.83.87,1.02,2.55.35,4.07,1.51.32.25.82.71,1.29,1.89,1.28,3.22.73,7.6.5,9.54-1.05,8.64-.8,8.83-1.61,9.78-1.95,2.3-5.04,3.23-4.86,5.21.05.59.41,1,.72,1.35,1.61,1.82,4.02.97,7.39,2.27,2.88,1.11,4.47,3.02,4.93,3.59,1.62,2,1.97,3.93,2.04,4.34.12.71.25,1.53,0,2.55-.53,2.18-2.09,2.35-2.14,3.78-.06,1.72,2.16,3.35,4.07,3.85.54.14,1.53.4,2.57,0,1.15-.45,1.61-1.42,1.82-1.87.07-.15.74-1.64,0-3.21-.45-.95-1-1.04-1.61-1.79-1.72-2.13-.55-5.37,0-6.89.3-.83.85-2.32,2.25-3.87,2.56-2.84,5.26-2.88,5.36-4.25.1-1.45-2.87-1.68-4.93-4.08-1.59-1.86-1.01-3.13-1.39-10.18-.41-7.54-1.2-8.7.21-10.77,1.7-2.47,4.36-2.93,4.18-4.72-.17-1.69-2.46-2.83-3.96-3.59-2.85-1.43-5.52-1.62-7.61-1.75Z"/>
        <g>
          <path class="cls-2" d="m186.58,358.19c-2.15.26-11.81,1.69-16.66,9.44-.37.59-3.54,5.83-2.14,12.23,1.07,4.9,4.39,8.55,5.3,9.54,3.28,3.53,5.98,4.24,7.02,7.74.26.89.83,2.8.16,5.01-.6,1.99-1.69,2.5-2.09,4.77-.19,1.1-.45,2.58.54,3.78,1.13,1.37,3.2,1.51,3.96,1.56,2.83.19,6.42-1.11,7.39-3.4,1.2-2.82-2.69-4.42-1.82-7.93.78-3.18,4.8-5.2,7.55-5.48.46-.05,1.78-.18,2.25.43.52.67-.6,1.49-.38,2.88.2,1.22,1.39,2.22,2.41,2.69,1.23.56,2,.24,2.6.85.61.62.45,1.63.24,2.34-.43.64-.97,1.67-.91,2.95.03.61.06,1.35.7,1.79.67.47,1.56.31,1.71.28.67-.12,1.35-.52,1.66-1.09.34-.61.1-1.17-.91-3.68-.84-2.09-.97-2.43-.86-2.98.19-.94.82-1.14,1.77-2.31,1.34-1.66,1.73-3.32,2.04-4.63.42-1.8.14-2.45.27-4.16.22-2.96,1.31-4.29,2.09-6.52,1.97-5.6-.04-11.04-.8-12.82-1.54-3.57-3.87-5.85-5.3-7.23-1.74-1.67-3.92-3.76-7.55-5.1-4.4-1.62-8.37-1.19-10.23-.97Z"/>
          <path class="cls-5" d="m186.42,366.64c-2.57.5-3.75,6.96-2.3,12.14,1.54,5.52,6.42,10.96,9,10.27,2.66-.71,3-7.99.96-13.53-1.53-4.15-5.15-9.37-7.66-8.88Z"/>
        </g>
        <path class="cls-2" d="m186.68,305.34c.59.81-.66,1.93-1.61,3.87-1.05,2.15-.19,2.15-1.04,9.47-.2,1.72-.38,2.84.18,4.25.45,1.14,1,1.46.79,2.06-.48,1.36-3.49.82-4.66,2.55-.58.86-.61,2.11,0,2.93.95,1.28,2.79.55,4.93,1.7,2.15,1.16,2.92,3.32,3.32,4.44.96,2.69-.24,3.34.79,6.14.64,1.74,2.09,4.14,3.6,4.06.37-.02.63-.18,1.07-.47,1.57-1.02,2.19-2.5,2.36-2.93,1.27-3.22-.53-4.74.75-7.37.35-.63,1.03-1.66,2.25-2.55,4.42-3.21,12.1-1.79,12.64.09.23.8-.94,1.22-1.61,3.78-.32,1.24-.24,1.9,0,2.46.1.23.51,1.16,1.61,1.61,1.38.57,2.76-.07,3-.19.62-.3,1.52-.96,2.14-2.93.99-3.14-.43-4.29,0-6.42.77-3.75,5.82-3.33,9.59-8.59,1.97-2.75,2.41-5.41,2.62-6.8.77-4.99-.99-8.85-1.71-10.39-.65-1.37-1.97-4.09-4.93-6.61-3.78-3.22-7.96-4.17-12.05-5.1-2.36-.54-6.74-.69-15.51-.99-3.48-.12-6.33-.17-9.64.99-1.67.59-4.25,1.53-5.22,3.78-.17.39-.78,1.96,0,3.59.81,1.69,2.65,2.43,3.16,2.64,1.75.71,2.72.32,3.18.95Z"/>
        <path class="cls-5" d="m198.17,303.66c-.41.58-.26,1.21.4,3.47,1.36,4.67,1.79,5.7,2.09,6.87,1.51,5.82-1.67,8.88.68,10.84,1.32,1.1,3.31.97,3.98.92,2.6-.17,4.72-1.79,5.62-3.47,1.07-1.99.03-3.26-.72-7.51-1.19-6.67.57-8.08-1.34-10.06-2.76-2.87-9.35-2.98-10.71-1.06Z"/>
        <path class="cls-2" d="m158.58,359.55c.82-.59.95-1.28,1.93-1.58,1.64-.5,3.4.51,3.86.79,2.05,1.27,2.56,3.36,3.06,5.42.45,1.86.81,3.31,0,4.91-.2.4-1.07,2.12-3.06,2.64-.5.13-1.41.37-2.25,0-1.49-.66-1.09-2.15-2.46-3.4-1.26-1.14-3.1-1.17-6.44-1.21-2.68-.03-4.02-.05-5.13.73-2.06,1.44-2.54,4.67-1.19,5.8.45.38,1.3.64,2.11.48.99-.19,1.49-.91,1.55-.99.58-.86-.07-1.38.34-2.14.86-1.6,4.74-1.28,5.02-1.26.75.07,1.09.14,1.39.38.8.64-.64,2.41.21,3.4.39.46.82.22,1.29.57,1.86,1.39-2.56,6.92-.32,9.54.6.7,1.19.63,1.61,1.49.6,1.24.1,2.88-.86,3.99-1.3,1.51-2.66,1.12-3.32,2.46-.51,1.04-.2,2.31,0,3.12.3,1.22.76,1.6.54,2.46-.05.19-.32,1.13-1.29,1.51-.42.17-1.21.31-1.5,0-.39-.41.47-1.2.86-2.46.5-1.6.06-3.45-.86-4.63-1.39-1.78-3.18-1.08-3.96-2.46-1.05-1.86,1.95-3.57,1.07-6.61-.12-.43-.57-1.98-2.04-2.46-.91-.3-2.09-.13-2.79.47-.68.59-.64,1.38-.64,2.93,0,4.82-.38,4.71,0,5.29,1.34,2.05,4.41.96,6.21,3.31.92,1.19.94,2.54.96,3.59.03,1.37.06,2.97-1.29,4.06-.91.74-2.47,1.26-3.75.85-1.46-.47-1.47-1.8-2.79-1.98-.95-.13-2.02.42-2.46,1.13-.54.87-.02,1.78.54,3.31.98,2.7,1.63,4.49,1.07,6.14-.56,1.67-2.37,3.24-4.61,3.59-1.61.25-2.94-.2-3.54-.45-.82-.43-3.44-1.9-4.39-4.75-.26-.78-.83-2.46,0-4.06.68-1.33,1.6-1.22,1.93-2.27.54-1.73-1.28-4.22-3.54-5.29-1.38-.66-2.29-.48-2.89-1.32-.7-.97-.24-2.27,0-2.93.79-2.15,2.25-2.68,3.21-3.97,3.19-4.26-3.2-11.24.11-14.36.49-.46.88-.54,1.39-1.23,1.09-1.45,1.45-3.89.21-5.5-1.59-2.07-4.31-1.61-4.93-3.19-.53-1.35.9-3.35,2.57-4.44,4.09-2.67,11.62-1.24,23.6,1.03,1.3.25,3.95.77,5.65-.46Z"/>
        <path class="cls-2" d="m216.33,361.81c-.03-1.98,3.9-3.65,6.16-4.3,3.95-1.14,7.37-.48,9.75,0,2.84.58,7.62,1.54,8.52,4.3.26.79.28,1.97-.32,2.98-.64,1.07-1.69,1.45-2.3,1.82-1.87,1.13-1.9,3.48-1.83,12.03.04,4.54.08,6.85,1.35,8.82.54.83,1.66,2.51,3.75,2.98.26.06,1.26.27,2.3,0,3.65-.94,2.97-6.47,6.21-7.46,1.95-.6,4.45.7,5.62,2.15,1.58,1.94.87,4.29,0,7.15-.95,3.14-2.11,6.95-5.95,8.36-.21.08-3.35,1.19-6.27,0-1.95-.79-1.76-1.79-3.86-2.83-1.88-.94-5.17-1.71-7.39-.28-1.54.98-1.96,2.63-2.09,3.12-.31,1.21-.1,2.21.16,3.4.55,2.55,1.43,2.95,1.09,4.11-.37,1.23-1.77,2.16-3.18,2.41-.44.08-2.02.3-3.16-.57-.62-.47-1.04-1.2-1.18-3.02-.26-3.44,1-4.08.64-5.76-.74-3.49-6.83-3.94-6.75-6.38.05-1.49,2.35-1.68,3.98-4.11,1.14-1.7,1.05-3.15,1.02-6.61-.09-9.23.38-13.41-1.99-15.06-.24-.17-1.19-.83-1.73-.57-.57.28-.47,1.49-.32,2.14.25,1.09.79,1.33.64,1.97-.15.66-.92,1.3-1.61,1.23-.8-.09-1.21-1.12-1.29-1.79-.1-.88.37-1.37.8-2.27.87-1.79,1.1-4.13.32-5.95-.54-1.26-1.11-1.23-1.12-1.98Z"/>
      </g>
    </g>
    <g>
      <g>
        <path class="cls-16" d="m42.98,283.21c1.03-1.46,2.23-1.07,7.75-2.65,8.22-2.34,8.81-3.88,12.36-3.46,3.32.4,6.77,2.22,7.86,2.8,2.32,1.23,3.2,2.11,5.29,2.46,2.94.48,3.86-.82,5.48-.19,3.32,1.28,5.22,8.99,2.27,11.91-1.75,1.73-4.77,1.37-9.07.85-2.52-.3-4.19-.5-6.36-1.33-2.04-.77-2.88-1.24-3.84-1.34-.13-.01-.47-.03-.93,0-2.32.14-4.15,1.25-5.6,1.94-.7.33-3.23,1.5-6.14,1.68-1.43.09-3.44.18-5.39-.85-3.94-2.09-5.91-8.67-3.69-11.81Z"/>
        <path class="cls-25" d="m64.62,279.43c3.77,1.51,4.09,7.29.47,9.17,2.25-2.92,2.06-6.49-.47-9.17h0Z"/>
        <path class="cls-25" d="m73.5,288.6c-1.72-1.91-1.18-5.61,1.34-6.6-1.4,2.14-1.58,4.1-1.34,6.6h0Z"/>
        <path class="cls-7" d="m76.24,282.36c-.73,2.06-.86,3.79-.85,4.91,0,1.62.03,2.93.94,4.06.75.93,2.19,1.85,3.12,1.42.49-.23.89-.85,1.04-4.25.07-1.58.09-3.79-.16-6.47"/>
      </g>
      <path class="cls-6" d="m50.16,280.47c.39-.46-1-3.37-2.74-3.12-1.06.16-2.06,1.46-1.98,3.12-1.38.5-3.36,1.35-5.48,2.83-2.08,1.45-3.64,2.54-4.72,4.54-1.48,2.72-1.14,5.38-.66,9.07.46,3.55,1.34,4.62,1.7,5.01.21.22,1.95,2.06,4.25,1.89,1.7-.13,2.26-1.26,4.35-2.83,4.29-3.24,7.58-2.72,7.86-4.47.18-1.15-1.23-1.43-3.23-4.12,0,0-3.51-4.73-2.83-10.11.11-.89.35-1.66.94-1.98,1-.55,2.26.54,2.55.19Z"/>
      <path class="cls-19" d="m49.31,300.08c1.26-2.17,4.07-2.69,5.6-2.98,10.96-2.08,8.95-2.57,12.93-2.73,7.62-.31,7.68,1.78,13.75.85,3.87-.59,5.75-1.73,8.04-.53,2.75,1.44,3.51,4.87,3.76,5.95.21.94,1.14,5.68-1.59,8.08-.93.82-1.98,1.04-4.04,1.45-3.08.61-5.52.58-7.55.53-5.05-.13-10.49-.49-10.49-.57,0-.03,1.11,0,2.13.11.89.09,1.34.13,1.39.26.17.51-2.68,2.32-6.11,3.12-2.16.51-2.39.11-4.7.59-3.95.83-4.24,2.19-6.06,2.11-4.71-.21-8.19-9.6-7.67-14.28.1-.88.33-1.49.61-1.98Z"/>
      <path class="cls-7" d="m69.72,296.6c.49.6,1.5,1.98,1.84,4.04.33,1.95-.1,3.52-.35,4.25"/>
      <path class="cls-7" d="m79.08,303.27c-.27-.87-.61-2.35-.43-4.18.16-1.62.66-2.88,1.05-3.65"/>
      <path class="cls-7" d="m87.72,294.17c-.57,2.49-.38,4.38-.07,5.69.5,2.12,1.35,2.94.92,4.25-.46,1.42-2.18,2.66-3.9,2.48-1.65-.18-2.59-1.59-2.91-2.06-1.32-1.98-.91-4.3-.64-5.88.27-1.56.79-2.77,1.19-3.56"/>
      <path class="cls-6" d="m53.97,298.49c.46-.07.91-1.26.52-2.17-.26-.6-.85-1.05-1.49-1.13-1.22-.17-2.29.99-2.98,1.7-4.97,5.15-7.62,5.02-8.96,9.11-.09.26-.32.99-.45,1.99-.68,5.03,1.86,10.91,4.93,11.23,1.41.14,1.64-.64,5.41-3.26,3.83-2.66,4.27-3.08,4.42-3.83.37-1.87-1.82-2.37-2.6-6.17-.22-1.09-.04-1.04-.43-3.76-.06-.42-.19-1.34-.06-2.53.05-.45.2-1.73.67-1.82.39-.07.62.7,1.02.64Z"/>
      <path class="cls-19" d="m52.76,319.59c2.19-3.7,6.75-4.57,10.54-5.29,1.48-.28,5.51-.19,13.51,0,5.56.13,8.34-.23,10.35-.57,3.1-.52,3.99-1.01,5.43-.47,3.24,1.2,5.47,6.16,4.44,10.39-.98,4.02-4.55,5.97-5.39,6.43-2.61,1.42-5.06,1.42-8.31,1.42-4.48,0-5.89-.89-8-.89-.86,0-1.5.16-1.92.23-4.09.65-5.98,2.01-8.79,2.93-2.58.84-5.49,1.79-7.94.76-4.38-1.86-6.87-9.95-3.92-14.93Z"/>
      <path class="cls-25" d="m73.6,316.28c1.25,1.13,1.98,2.8,2.16,4.51.17,1.7-.21,3.49-1.22,4.85.26-1.65.39-3.2.22-4.75-.15-1.55-.58-3.04-1.17-4.61Z"/>
      <path class="cls-25" d="m82.29,321.67c-.77-1.07-1.1-2.36-1.18-3.65-.05-1.29.15-2.61.81-3.75.12,1.3.12,2.49.19,3.7.05,1.21.17,2.39.19,3.7Z"/>
      <path class="cls-7" d="m84.28,314.11c-.41.87-1.76,4.02-.47,7.37.41,1.06,1.48,3.83,3.97,4.16,2.02.27,4.22-1.17,4.63-2.83.37-1.5-.95-2.3-1.51-4.82-.45-1.99-.14-3.77.19-4.95"/>
      <path class="cls-3" d="m59.24,335.27c.85-2.15-2.6-3.55-4.06-9.17-1.13-4.34-.55-9.15,1.19-9.77.78-.28,1.59.37,1.83.04.4-.55-1.28-3.09-2.65-2.93-1.66.2-2.49,4.31-2.69,4.24-.15-.05.85-2.2.28-2.69-.93-.81-6.84,2.09-8.48,7.26-1.29,4.07.59,7.83,1.82,10.28.92,1.83,1.65,3.28,3.31,4.25,3.33,1.94,8.52.84,9.45-1.51Z"/>
      <path class="cls-19" d="m52.62,339.24c.45-.73.99-1.05,4.54-2.46,6.49-2.58,9.73-3.87,12.28-4.16,4.23-.48,3.85.87,8.88.57,7.42-.45,9.47-3.09,13.04-1.61,3.09,1.28,5.43,4.87,5.39,8.41-.04,3.42-2.28,5.79-2.93,6.43-4.53,4.43-12.29,3.29-15.84,2.76-2.45-.36-5.68-1.15-5.7-1.06-.02.08,2.63.44,2.65,1.04.02.73-4.49,1.35-13.51,2.55-1.45.19-1.93.25-2.65.09-4.75-1.03-8.4-8.91-6.14-12.57Z"/>
      <path class="cls-25" d="m76.07,335.19c1.9,2.41,1.82,6.3-.21,8.61.69-2.98.76-5.6.21-8.61h0Z"/>
      <path class="cls-25" d="m81.74,340.19c-1.65-2.01-1.8-5.19-.33-7.34-.08,2.61,0,4.75.33,7.34h0Z"/>
      <path class="cls-7" d="m83.9,332.33c-.31.82-1.88,5.24.42,8.67.46.68,1.45,2.17,3.19,2.37,1.73.2,3.62-.93,4.11-2.41.51-1.55-.85-2.49-1.24-5.21-.26-1.83.07-3.39.37-4.38"/>
      <path class="cls-3" d="m49.88,337.35c-1.69,1.46-1.83,3.81-1.98,5.76-.07.86-.44,6.5,3.5,10.02.56.5,1.94,1.69,3.97,2.08,1.35.26,1.57-.11,4.06,0,2.42.11,2.88.49,3.97.09,1.32-.48,2.59-1.74,2.36-2.55-.25-.91-2.17-.5-4.25-1.61-2.14-1.14-3.09-3.15-3.87-4.82-1.31-2.77-2.63-7.91-.47-9.92.55-.51,1.23-.73,1.36-1.46.2-1.08-.93-2.53-1.93-2.51-.89.02-1.02,1.2-2.46,2.55-1.72,1.62-2.89,1.18-4.25,2.36Z"/>
      <g>
        <g>
          <path class="cls-16" d="m400.83,274.69c-1.36-1.16-2.42-.49-8.16-.65-8.54-.24-9.5-1.59-12.83-.3-3.12,1.2-6.01,3.82-6.93,4.65-1.95,1.76-2.58,2.84-4.52,3.69-2.72,1.19-3.94.16-5.36,1.17-2.9,2.07-2.84,10,.74,12.1,2.12,1.25,4.96.15,9-1.42,2.37-.92,3.94-1.52,5.84-2.86,1.79-1.25,2.48-1.91,3.39-2.25.12-.05.45-.14.9-.23,2.28-.43,4.33.19,5.9.49.76.15,3.5.66,6.37.11,1.4-.27,3.38-.67,5.01-2.15,3.3-2.99,3.58-9.86.65-12.36Z"/>
          <path class="cls-25" d="m378.93,276.37c-1.79,3.22-1.09,6.72,1.81,9-3.97-.93-5.09-6.61-1.81-9h0Z"/>
          <path class="cls-25" d="m372.59,287.44c-.38-2.49-1.04-4.34-2.93-6.07,2.69.33,4.12,3.79,2.93,6.07h0Z"/>
          <path class="cls-7" d="m368.39,282.08c1.21,1.81,1.77,3.46,2.04,4.55.39,1.57.69,2.85.09,4.17-.5,1.08-1.66,2.34-2.67,2.14-.53-.1-1.07-.61-2.06-3.86-.46-1.51-1.02-3.65-1.44-6.31"/>
        </g>
        <path class="cls-6" d="m393.2,273.8c-.49-.35.13-3.52,1.89-3.7,1.07-.11,2.35.9,2.69,2.53,1.46.14,3.59.48,6.01,1.39,2.37.89,4.15,1.56,5.7,3.23,2.1,2.27,2.43,4.93,2.88,8.63.43,3.55-.16,4.81-.41,5.27-.14.27-1.38,2.48-3.65,2.88-1.68.3-2.5-.66-4.91-1.67-4.96-2.08-8.02-.76-8.72-2.39-.46-1.07.84-1.69,2.11-4.8,0,0,2.24-5.45.25-10.5-.33-.83-.75-1.52-1.41-1.69-1.1-.29-2.06,1.08-2.43.81Z"/>
        <path class="cls-19" d="m398.86,292.59c-1.76-1.79-4.6-1.6-6.16-1.5-11.13.69-9.31-.28-13.21.55-7.46,1.58-7,3.62-13.11,4.22-3.9.38-6-.26-7.93,1.47-2.31,2.07-2.2,5.59-2.17,6.7.03.96.3,5.78,3.54,7.43,1.11.56,2.18.52,4.27.41,3.13-.17,5.49-.8,7.44-1.35,4.86-1.37,10.05-3.06,10.02-3.14,0-.03-1.07.28-2.03.63-.84.3-1.27.46-1.28.6-.04.54,3.17,1.59,6.69,1.52,2.22-.04,2.34-.49,4.7-.59,4.03-.18,4.65,1.08,6.39.55,4.51-1.36,5.57-11.32,3.9-15.73-.31-.83-.69-1.37-1.09-1.77Z"/>
        <path class="cls-7" d="m378.23,294.27c-.33.7-.96,2.29-.79,4.37.16,1.98.97,3.39,1.39,4.03"/>
        <path class="cls-7" d="m370.81,303.03c.05-.91,0-2.42-.62-4.16-.56-1.53-1.35-2.62-1.92-3.28"/>
        <path class="cls-7" d="m360.19,296.36c1.16,2.27,1.45,4.15,1.47,5.5.04,2.18-.58,3.18.16,4.35.8,1.27,2.77,2.04,4.39,1.44,1.56-.58,2.12-2.18,2.31-2.71.79-2.24-.18-4.39-.83-5.86-.65-1.44-1.45-2.49-2.03-3.15"/>
        <path class="cls-6" d="m393.96,292.21c-.46.04-1.2-.99-1.04-1.98.1-.64.57-1.23,1.16-1.47,1.14-.46,2.46.39,3.3.91,6.09,3.77,8.62,2.99,10.94,6.61.15.23.55.89.93,1.82,1.9,4.7.89,11.03-2,12.09-1.33.49-1.74-.22-6.05-1.82-4.37-1.63-4.9-1.93-5.23-2.62-.82-1.72,1.18-2.75,1-6.62-.05-1.11-.22-1.02-.52-3.74-.05-.42-.14-1.35-.57-2.46-.16-.43-.62-1.63-1.1-1.6-.39.03-.43.83-.83.87Z"/>
        <path class="cls-19" d="m400.34,312.35c-3.04-3.05-7.67-2.76-11.52-2.53-1.5.09-5.39,1.18-13.09,3.34-5.36,1.5-8.14,1.84-10.17,2.01-3.14.26-4.12,0-5.38.88-2.84,1.97-3.78,7.32-1.74,11.17,1.94,3.65,5.88,4.66,6.81,4.9,2.88.73,5.25.13,8.41-.68,4.34-1.11,5.49-2.32,7.53-2.84.84-.21,1.49-.21,1.92-.25,4.13-.38,6.29.47,9.24.67,2.71.18,5.77.38,7.88-1.23,3.79-2.89,4.2-11.34.11-15.44Z"/>
        <path class="cls-25" d="m379.33,314.29c-.43,3.33,0,6.24,1.39,9.3-2.62-2.15-3.25-6.47-1.39-9.3h0Z"/>
        <path class="cls-25" d="m372.24,321.66c-.53-2.55-.97-4.71-1.46-7.26,1.76,1.9,2.34,4.83,1.46,7.26h0Z"/>
        <path class="cls-7" d="m368.45,314.83c.61.74,2.7,3.46,2.28,7.02-.13,1.13-.48,4.08-2.82,5.01-1.89.76-4.38-.09-5.19-1.6-.73-1.37.35-2.46.27-5.04-.06-2.04-.8-3.68-1.41-4.75"/>
        <path class="cls-3" d="m397.94,329.15c-1.36-1.88,1.64-4.08,1.67-9.88.02-4.48-1.73-9-3.57-9.17-.83-.08-1.45.75-1.77.49-.52-.44.47-3.31,1.84-3.49,1.66-.22,3.48,3.56,3.66,3.44.13-.09-1.37-1.92-.94-2.54.7-1.01,7.14.34,10.01,4.94,2.26,3.62,1.36,7.74.78,10.41-.44,2-.78,3.59-2.15,4.94-2.75,2.7-8.05,2.91-9.53.87Z"/>
        <path class="cls-19" d="m405.33,331.36c-.62-.6-1.22-.77-5-1.26-6.92-.9-10.38-1.35-12.93-1-4.22.58-3.51,1.8-8.47,2.74-7.3,1.39-9.94-.65-13.03,1.66-2.68,2.01-4.06,6.06-3.14,9.48.88,3.3,3.63,5.04,4.43,5.5,5.49,3.17,12.72.15,16.03-1.23,2.29-.96,5.22-2.52,5.27-2.44.04.08-2.44,1.08-2.31,1.66.16.71,4.68.2,13.72-.86,1.45-.17,1.93-.24,2.59-.56,4.35-2.17,5.94-10.71,2.85-13.69Z"/>
        <path class="cls-25" d="m381.61,333.23c.22,3.05.93,5.57,2.33,8.29-2.54-1.74-3.58-5.49-2.33-8.29h0Z"/>
        <path class="cls-25" d="m377.35,339.47c-.33-2.59-.77-4.69-1.49-7.19,1.95,1.72,2.59,4.84,1.49,7.19h0Z"/>
        <path class="cls-7" d="m373.31,332.39c.5.72,3.11,4.61,1.73,8.51-.27.77-.87,2.46-2.5,3.09-1.62.62-3.74,0-4.58-1.32-.88-1.37.21-2.62-.08-5.35-.2-1.84-.9-3.26-1.44-4.16"/>
        <path class="cls-3" d="m407.52,328.85c2,1,2.71,3.24,3.35,5.1.28.82,2.03,6.19-.91,10.57-.42.63-1.46,2.12-3.33,2.99-1.24.58-1.55.28-3.94,1-2.32.7-2.67,1.18-3.82,1.07-1.4-.14-2.93-1.04-2.92-1.89.02-.95,1.98-1.02,3.72-2.61,1.79-1.63,2.21-3.82,2.56-5.63.58-3,.6-8.31-1.99-9.73-.66-.36-1.37-.41-1.68-1.08-.46-.99.28-2.68,1.25-2.91.87-.2,1.28.91,3.01,1.87,2.07,1.14,3.09.43,4.7,1.24Z"/>
      </g>
    </g>
  </g>
</svg>